<?xml version="1.0" standalone="no"?>
<!DOCTYPE svg PUBLIC "-//W3C//DTD SVG 1.1//EN" "http://www.w3.org/Graphics/SVG/1.1/DTD/svg11.dtd">
<svg xmlns="http://www.w3.org/2000/svg">
<defs >
<font id="Mali" horiz-adv-x="587" ><font-face
    font-family="Mali"
    units-per-em="1000"
    panose-1="0 0 5 0 0 0 0 0 0 0"
    ascent="1050"
    descent="-250"
    alphabetic="0" />
<glyph unicode=" " glyph-name="space" horiz-adv-x="320" />
<glyph unicode="!" glyph-name="exclam" horiz-adv-x="265" d="M110 171T106 180T103 204L182 684Q184 700 194 709T218 718Q241 718 241 696Q241 688 240 684L160 208Q157 192 147 182T124 171Q110 171 106 180ZM68 0T54 15T39 52Q39 78 61 99T111 121Q132 121
148 106T164 70Q164 44 140 22T90 0Q68 0 54 15Z" />
<glyph unicode="&quot;" glyph-name="quotedbl" horiz-adv-x="353" d="M136 478T129 485T124 502Q138 568 160 695Q162 703 171 708T194 714Q208 714 215 709T221 695L211 641Q194 556 186 500Q185 490 175 484T150 478Q136 478 129 485ZM266 478T259 485T254
502Q268 568 290 695Q292 703 301 708T324 714Q338 714 345 709T351 695L341 641Q324 556 316 500Q315 490 305 484T280 478Q266 478 259 485Z" />
<glyph unicode="#" glyph-name="numbersign" horiz-adv-x="615" d="M565 439T565 417Q565 400 555 391T527 382H485L425 199H483Q496 199 503 193T510 176Q510 162 499 152T473 141H406L369 26Q364 12 356 6T332 0Q320 0 314 8T311 25L349 141H194L158 26Q149
-1 123 -1Q101 -1 101 21Q101 30 103 35L136 141H93Q80 141 73 147T66 163Q66 177 76 187T103 198H154L213 385H171Q144 385 144 407Q144 423 154 433T181 443L231 442L280 598Q290 629 316 629Q339 629 339 608Q339 598 337 593L289 442L446 440L500 607Q504 618
513 625T534 632Q557 632 557 610Q557 602 555 597L504 439H537Q565 439 565 417ZM427 383L271 384L212 198L367 199L427 383Z" />
<glyph unicode="$" glyph-name="dollar" horiz-adv-x="563" d="M461 695T506 649T551 537Q551 501 539 489T504 476Q484 476 478 483T471 504L472 525Q472 566 447 597T375 635L336 413L330 381Q400 357 449 316T498 195Q498 137 468 93T385 25T265 1H261L245
-85Q242 -105 220 -105Q210 -105 205 -101T200 -90Q208 -42 218 4Q140 16 97 65T54 193Q54 228 64 241T100 255Q124 255 129 244T135 197Q136 141 161 111T230 74Q244 148 262 247L275 319Q202 343 154 380T105 495Q105 553 137 600T223 676T342 707Q351 754 357
791Q359 798 366 803T383 809Q392 809 398 804T403 793L387 705Q461 695 506 649ZM183 453T209 433T289 395L290 402L330 636Q289 632 256 611T203 559T183 494Q183 453 209 433ZM421 240T396 262T317 305Q290 155 274 71Q338 74 379 109T421 199Q421 240 396 262Z"
/>
<glyph unicode="%" glyph-name="percent" horiz-adv-x="855" d="M222 -3T213 4T204 23Q204 31 213 47L610 724Q622 746 651 746Q666 746 675 739T684 721Q684 713 672 694L281 23Q266 -3 237 -3Q222 -3 213 4ZM221 433T189 464T156 544Q156 587 179 622T240 679T323
700Q378 700 408 669T439 589Q439 547 417 511T357 454T275 433Q221 433 189 464ZM324 491T348 516T373 582Q373 609 356 625T312 642Q278 642 251 617T224 551Q224 523 241 507T288 491Q324 491 348 516ZM529 50T497 82T464 162Q464 205 486 240T547 297T630 318Q686
318 716 286T747 206Q747 164 725 128T665 71T583 50Q529 50 497 82ZM631 108T655 134T680 198Q680 225 665 243T620 261Q584 261 558 234T532 169Q532 141 548 125T593 108Q631 108 655 134Z" />
<glyph unicode="&amp;" glyph-name="ampersand" horiz-adv-x="722" d="M626 78T629 73T632 60Q632 46 623 35T598 24Q589 24 571 33Q508 65 481 81Q436 48 383 30T277 12Q183 12 132 57T80 186Q80 244 118 304T214 402Q182 418 165 448T147 515Q147 567 173 607T243
670T338 693Q403 693 448 654T493 555Q493 487 451 448T332 386Q357 313 386 263T459 173Q465 167 473 162Q498 190 512 223T527 290Q527 317 521 331Q519 337 519 340Q519 352 532 362T561 372Q582 372 591 353Q600 335 600 299Q600 250 582 206T529 125Q553 111
617 82Q626 78 629 73ZM311 635T283 621T237 581T218 517Q218 485 238 463T299 439Q359 449 392 474T425 552Q425 591 400 613T338 635Q311 635 283 621ZM313 71T350 83T422 118L401 136Q359 173 326 232T274 367Q220 342 185 291T150 186Q150 139 182 105T276
71Q313 71 350 83Z" />
<glyph unicode="&apos;" glyph-name="quotesingle" horiz-adv-x="221" d="M135 478T128 485T123 502Q137 568 159 695Q161 703 170 708T193 714Q207 714 214 709T220 695L210 641Q193 556 185 500Q184 490 174 484T149 478Q135 478 128 485Z" />
<glyph unicode="(" glyph-name="parenleft" horiz-adv-x="340" d="M179 -128T175 -127T165 -120Q109 -64 81 16T52 190Q52 294 87 405T184 606T323 740Q334 747 346 747Q358 747 366 740T375 722Q375 708 369 701T351 686T333 674Q267 629 219 550T146 376T120
193Q120 102 145 45T209 -62Q222 -78 222 -93Q222 -106 212 -117T190 -128Q179 -128 175 -127Z" />
<glyph unicode=")" glyph-name="parenright" horiz-adv-x="340" d="M7 -128T-1 -121T-9 -102Q-9 -89 -2 -81T15 -66T32 -55Q97 -9 145 70T220 243T246 424Q246 516 220 573T152 681Q139 695 139 712Q139 725 151 736T175 747Q186 747 190 746T199 739Q255 682
284 601T314 425Q314 325 279 216T182 17T42 -121Q31 -128 19 -128Q7 -128 -1 -121Z" />
<glyph unicode="*" glyph-name="asterisk" horiz-adv-x="497" d="M476 606T481 599T487 583Q487 567 465 557L335 496L447 433Q456 428 456 417Q456 405 447 395T427 384Q419 384 409 389L317 447L299 338Q297 328 288 322T266 315Q254 315 248 321T243 338L261
446L158 395Q143 390 140 390Q132 390 126 396T119 412Q119 429 134 436L256 496L140 562Q130 569 130 578Q130 588 139 598T159 609Q168 609 176 603L277 543L297 662Q301 689 329 689Q344 689 349 683T353 662L333 542L441 598Q462 606 468 606Q476 606 481 599Z"
/>
<glyph unicode="+" glyph-name="plus" horiz-adv-x="540" d="M492 344T499 339T506 323Q506 284 464 284L306 286L279 132Q274 99 243 99Q218 99 218 120L234 221Q238 240 240 256T245 286Q194 287 82 287Q56 287 56 308Q56 326 66 336T94 347L256 346L266 402Q279
479 281 488Q284 505 292 513T317 521Q343 521 343 501L328 411L317 345L475 344Q492 344 499 339Z" />
<glyph unicode="," glyph-name="comma" horiz-adv-x="300" d="M156 152T174 129T193 65Q193 24 176 -16T128 -82Q103 -104 76 -116T23 -129Q12 -129 6 -124T-1 -110Q-1 -98 7 -90T24 -81Q64 -81 102 -48Q118 -35 129 -16T146 24Q123 3 89 3Q61 3 45 20T28 63Q28
98 55 125T120 152Q156 152 174 129ZM116 41T129 54T142 85Q142 97 134 104T110 112Q93 112 81 98T69 68Q69 56 76 49T97 41Q116 41 129 54Z" />
<glyph unicode="-" glyph-name="hyphen" horiz-adv-x="422" d="M75 337T69 344T63 363Q63 382 72 393T98 405Q190 403 221 403Q308 403 374 408Q407 411 407 383Q407 365 395 352T362 338L323 337Q253 335 202 335Q169 335 151 336L84 337Q75 337 69 344Z" />
<glyph unicode="." glyph-name="period" horiz-adv-x="296" d="M83 4T70 17T56 51Q56 82 79 104T129 126Q149 126 163 111T178 73Q178 46 155 25T105 4Q83 4 70 17Z" />
<glyph unicode="/" glyph-name="slash" horiz-adv-x="525" d="M68 -13T60 -6T51 14Q51 25 60 40L475 859Q482 871 488 875T506 880Q521 880 531 872T542 850Q542 842 539 836T535 827L120 13Q106 -13 86 -13Q68 -13 60 -6Z" />
<glyph unicode="0" glyph-name="zero" horiz-adv-x="617" d="M199 13T146 46T66 134T39 255Q39 357 82 450T202 602T370 660Q447 660 500 623T579 525T605 393Q605 288 563 201T446 64T274 13Q199 13 146 46ZM349 77T406 119T495 233T527 388Q527 478 487 537T371
596Q301 596 243 545T151 415T117 257Q117 177 157 127T274 77Q349 77 406 119Z" />
<glyph unicode="1" glyph-name="one" horiz-adv-x="447" d="M360 673T371 660T381 630L275 35Q273 20 261 11T231 2Q211 2 204 12T200 35L294 566Q252 521 179 450Q176 447 170 445T157 443Q143 443 135 453T126 474Q126 481 130 486T146 502Q170 524 267 627L291
652Q312 673 337 673Q360 673 371 660Z" />
<glyph unicode="2" glyph-name="two" horiz-adv-x="557" d="M445 71T453 64T462 44Q462 27 449 17T418 6Q406 6 362 8Q263 11 233 11Q124 11 47 7Q35 7 27 12T19 27Q19 86 107 168T301 315Q459 415 459 531Q459 580 427 610T341 640Q282 640 239 599T187 502Q183
487 173 480T143 473Q112 473 112 500Q112 552 143 599T227 675T341 704Q397 704 442 681T512 619T538 531Q538 449 484 384T335 261Q261 217 202 168T116 72Q155 74 244 74Q316 74 430 71Q445 71 453 64Z" />
<glyph unicode="3" glyph-name="three" horiz-adv-x="586" d="M501 340T521 304T542 221Q542 159 513 110T425 31T282 2Q179 2 108 47T36 188Q36 217 42 250Q50 292 87 292Q103 292 112 285T121 266Q121 263 119 257Q114 225 114 206Q114 66 283 66Q363 66 415
107T468 221Q468 272 435 298T329 324Q298 324 303 354Q306 371 314 380T340 389Q416 389 461 424T506 522Q506 562 477 591T398 621Q341 621 294 586T237 496Q236 486 236 459Q236 446 225 437T194 428Q167 428 162 448Q160 466 160 474Q160 532 192 580T280 656T398
684Q448 684 490 665T558 611T584 528Q584 470 551 425T463 358Q501 340 521 304Z" />
<glyph unicode="4" glyph-name="four" d="M563 281T570 274T578 254Q578 217 542 213Q488 207 434 204L396 31Q394 16 382 7T352 -3Q322 -3 322 23Q322 30 323 34L360 201Q316 200 217 200Q109 200 43 217Q20 223 20 243Q20 257 32 275Q122 406 201 503T377 681Q388
690 403 690Q415 690 423 681T432 663Q432 654 426 645T407 623Q316 543 241 455T118 286Q115 282 115 277Q115 273 127 270Q174 263 265 263Q304 263 374 265L423 491Q428 524 463 524Q480 524 488 517T497 496Q497 489 496 485L448 269Q512 275 550 279Q563 281
570 274Z" />
<glyph unicode="5" glyph-name="five" horiz-adv-x="583" d="M152 0T98 45T44 168Q44 191 49 224Q53 242 64 251T94 261Q111 261 120 254T130 236Q130 233 128 227Q123 197 123 177Q123 124 152 96T246 67Q346 67 400 122T455 273Q455 336 420 370T315 405Q286
405 260 400T177 382Q171 380 161 380Q144 380 134 389T128 414L139 462Q173 608 189 690Q276 686 388 686Q425 686 483 688Q529 690 548 690Q573 690 573 668Q573 648 562 637T532 625Q493 625 471 624L377 623Q323 623 271 625Q264 626 251 626Q244 597 231 540T212
456Q212 449 220 449Q221 449 231 451Q238 453 259 458T301 467T341 470Q431 470 482 419T534 283Q534 196 500 133T402 35T250 0Q152 0 98 45Z" />
<glyph unicode="6" glyph-name="six" horiz-adv-x="604" d="M589 526T589 524Q589 508 575 497T546 485Q535 485 529 491T515 511Q501 544 489 565T451 601T385 616Q290 616 222 537T125 314Q159 357 215 383T330 409Q397 409 444 383T515 315T539 223Q539 118
468 60T279 2Q168 2 107 56T45 213Q45 263 52 305Q69 408 112 493T225 628T385 679Q461 679 512 641T585 540Q589 526 589 524ZM276 346T231 326T160 268T133 178Q133 125 169 95T278 65Q339 65 380 87T442 146T462 223Q462 275 430 310T330 346Q276 346 231 326Z"
/>
<glyph unicode="7" glyph-name="seven" horiz-adv-x="556" d="M529 372T529 346Q529 328 518 317T488 306Q438 306 411 305Q342 167 257 21Q251 11 239 6T214 0Q198 0 189 7T180 26Q180 34 186 43Q244 138 329 304Q304 303 255 303Q224 303 224 327Q224 346 236
357T267 368Q332 368 362 369Q429 504 429 562Q429 597 405 614T318 631Q243 631 128 604Q125 603 118 603Q106 603 99 609T92 628Q92 655 128 667Q218 696 318 696Q409 696 458 661T507 562Q507 526 491 482T443 371L495 372Q529 372 529 346Z" />
<glyph unicode="8" glyph-name="eight" horiz-adv-x="605" d="M497 402T533 354T569 245Q569 168 530 113T424 30T271 2Q197 2 142 25T56 92T26 192Q26 248 56 296T137 377T246 423Q220 436 204 459T188 515Q188 562 214 602T285 665T379 688Q442 688 482 651T523
559Q523 467 432 424Q497 402 533 354ZM327 626T294 594T261 517Q261 482 282 463T339 443Q369 443 395 459T436 502T451 558Q451 590 431 608T376 626Q327 626 294 594ZM343 64T392 90T467 158T493 244Q493 304 449 341T331 379Q274 379 221 356T135 290T102 197Q102
136 146 100T275 64Q343 64 392 90Z" />
<glyph unicode="9" glyph-name="nine" horiz-adv-x="591" d="M470 689T532 628T594 461Q594 422 587 384Q555 207 471 105T249 2Q186 2 136 23T58 83T30 168Q30 184 33 202Q35 218 47 228T75 239Q91 239 100 230T106 203Q104 187 104 180Q104 129 145 98T260 66Q356
66 421 147T518 371Q485 316 428 287T309 257Q211 257 153 303T95 433Q95 509 130 567T226 657T362 689Q470 689 532 628ZM361 317T406 341T479 406T507 498Q507 555 467 590T361 626Q307 626 264 601T196 532T171 433Q171 317 310 317Q361 317 406 341Z" />
<glyph unicode=":" glyph-name="colon" horiz-adv-x="310" d="M134 300T115 319T96 366Q96 403 120 427T183 451Q213 451 232 433T252 388Q252 349 229 325T164 300Q134 300 115 319ZM187 339T198 351T210 383Q210 394 201 402T178 411Q161 411 150 398T138 369Q138
355 146 347T168 339Q187 339 198 351ZM92 15T73 34T53 81Q53 117 76 142T136 167Q169 167 188 147T208 98Q208 60 184 38T121 15Q92 15 73 34ZM143 55T154 64T166 91Q166 106 158 114T134 123Q120 123 109 111T96 87Q95 71 103 63T125 55Q143 55 154 64Z" />
<glyph unicode=";" glyph-name="semicolon" horiz-adv-x="329" d="M231 451T250 433T270 388Q270 349 247 325T182 300Q152 300 133 319T114 366Q114 403 138 427T201 451Q231 451 250 433ZM205 339T216 351T228 383Q228 394 219 402T196 411Q179 411 168 398T156
369Q156 355 164 347T186 339Q205 339 216 351ZM176 152T194 129T213 65Q213 24 196 -16T148 -82Q123 -104 96 -116T43 -129Q32 -129 26 -124T19 -110Q19 -98 27 -90T44 -81Q84 -81 122 -48Q138 -35 149 -16T166 24Q143 3 109 3Q81 3 65 20T48 63Q48 98 75 125T140
152Q176 152 194 129ZM136 41T149 54T162 85Q162 97 154 104T130 112Q113 112 101 98T89 68Q89 56 96 49T117 41Q136 41 149 54Z" />
<glyph unicode="&lt;" glyph-name="less" horiz-adv-x="540" d="M415 107T228 182Q140 217 94 246T48 305Q48 339 109 373T278 445Q331 463 417 488T518 513Q531 513 537 507T544 490Q544 474 534 465T501 450L472 442Q354 410 293 390Q229 369 175 343T121 305Q121
296 155 281T264 238L357 202Q444 169 450 167Q462 164 468 157T475 141Q475 125 467 116T443 107Q415 107 228 182Z" />
<glyph unicode="=" glyph-name="equal" horiz-adv-x="540" d="M94 350T85 356T75 375Q75 392 90 401T132 411L466 414Q483 414 494 407T506 386Q506 370 492 362T453 353L109 350Q94 350 85 356ZM51 205T51 229Q51 246 65 256T107 267L448 277Q465 278 476 271T487
251Q487 235 473 226T435 216L85 205Q51 205 51 229Z" />
<glyph unicode="&gt;" glyph-name="greater" horiz-adv-x="540" d="M52 107T44 112T35 128Q35 141 44 151T68 167Q218 220 277 239Q342 261 387 281T433 310Q433 320 395 341T298 388Q245 410 190 427T108 450Q76 458 76 479Q76 493 85 502T111 511Q128 511 203
488T329 445Q414 413 464 378T515 310Q515 277 463 250T295 182L226 158Q163 136 119 122T64 107Q52 107 44 112Z" />
<glyph unicode="?" glyph-name="question" horiz-adv-x="527" d="M232 183T232 209Q232 248 259 284T343 376Q402 433 432 473T462 558Q462 610 430 640T343 671Q264 671 218 633T172 531Q172 504 187 487T227 470Q255 470 255 447Q255 431 244 421T215 411Q170
411 141 442T112 521Q112 580 142 628T224 703T343 730Q422 730 471 685T521 566Q521 526 502 489T457 421T386 349Q338 304 315 275T292 218Q292 196 283 190T255 183Q232 183 232 209ZM204 13T191 25T178 58Q178 82 198 101T243 120Q262 120 275 108T288 76Q288
53 268 33T224 13Q204 13 191 25Z" />
<glyph unicode="@" glyph-name="at" horiz-adv-x="886" d="M596 604T665 571T773 478T813 345Q813 277 784 206T705 89T601 42Q567 42 547 59T523 105Q477 57 397 57Q321 57 290 99T259 204Q259 267 286 321T362 408T467 440Q508 440 536 424T579 380L586 405Q590
417 600 423T624 430Q638 430 646 424T654 408Q654 403 651 395Q625 324 614 287Q608 271 605 260Q574 165 574 133Q574 116 581 107T606 98Q645 98 677 137T727 233T746 343Q746 403 716 449T632 522T505 548Q397 548 316 500T191 371T147 194Q147 82 218 17T415
-48Q446 -48 470 -45T531 -32L555 -27Q568 -24 574 -31T581 -50Q581 -61 574 -68T548 -82Q520 -92 480 -98T401 -104Q304 -104 231 -67T119 36T80 188Q80 299 135 394T288 547T510 604Q596 604 665 571ZM553 309T553 313Q553 343 525 365T459 388Q421 388 390 363T341
297T323 213Q323 167 345 139T413 111Q445 111 470 126T510 171Q525 203 551 299Q553 309 553 313Z" />
<glyph unicode="A" glyph-name="A" horiz-adv-x="692" d="M603 195T593 181T564 167H557L573 34L574 25Q574 9 559 0T526 -10Q513 -10 504 -4T493 12L475 167L192 169Q144 73 114 16Q102 -9 72 -9Q53 -9 43 1T36 23Q36 27 40 35L209 369Q260 467 326 598Q359 662
378 686T428 711Q456 711 473 687T499 608Q524 437 547 245H572Q587 245 595 237T603 214Q603 195 593 181ZM467 246L433 534Q428 574 424 592T415 610Q410 610 401 594T370 535L322 436Q277 341 231 249L467 246Z" />
<glyph unicode="B" glyph-name="B" horiz-adv-x="621" d="M50 -23T47 5L34 6Q7 9 7 29Q7 47 18 60T50 73H64Q104 226 132 382Q150 479 168 599Q161 596 152 596Q143 596 138 601T132 616Q132 635 145 647T188 671Q280 707 380 707Q448 707 502 686T586 626T617
536Q617 460 561 413T415 352Q478 338 513 298T549 210Q549 140 506 91T393 19T242 -2L173 1L121 2Q110 -23 82 -23Q50 -23 47 5ZM472 67T472 210Q472 267 420 291T273 320Q254 321 243 326T231 346Q231 389 284 391Q357 395 411 406T502 447T539 536Q539 587 494
613T369 640Q343 640 309 636T249 625Q235 532 209 383Q181 222 138 69L191 68Q213 67 255 67Q472 67 472 210Z" />
<glyph unicode="C" glyph-name="C" horiz-adv-x="714" d="M722 708T722 680Q722 674 721 671L700 559Q692 514 652 514Q632 514 622 530Q601 566 584 588T538 626T465 642Q382 642 307 588T185 449T138 276Q138 207 168 160T248 91T357 68Q441 68 510 113T603
245Q607 262 616 272T648 283Q667 283 676 276T685 255Q685 251 683 239Q670 173 626 118T513 30T357 -3Q278 -3 210 28T101 121T60 274Q60 382 116 484T266 649T465 713Q527 713 570 690T638 625L647 674Q649 689 659 698T689 708Q722 708 722 680Z" />
<glyph unicode="D" glyph-name="D" horiz-adv-x="687" d="M460 685T561 614T662 401Q662 285 598 196T420 57T166 7H79Q60 7 51 13T42 35Q42 52 52 64T81 76H116L198 630H195Q174 630 163 635T151 657Q151 683 164 691T203 700H215Q225 715 251 715Q266 715 273
711T282 697Q460 685 561 614ZM301 82T391 124T533 238T586 401Q586 518 502 568T275 628L192 77Q301 82 391 124Z" />
<glyph unicode="E" glyph-name="E" horiz-adv-x="573" d="M595 686T602 682T610 664Q610 644 598 632T570 621Q472 629 388 629Q324 629 252 625Q233 492 217 404L284 403L394 400L453 399Q477 399 477 375Q477 356 467 343T441 329L388 330Q343 333 270 333Q228
333 204 334Q190 260 176 206T143 86Q207 81 297 81Q351 81 383 83T461 90Q498 94 498 64Q498 46 489 35T461 20Q423 12 276 12Q144 12 40 24Q18 27 18 49Q18 67 27 79T50 92H67Q85 146 98 201T127 335H115Q85 335 85 361Q85 379 95 392T123 405H139Q148 456 149
463Q171 582 177 622H170Q154 622 154 647Q154 673 167 681T201 692Q259 698 374 698Q519 698 580 689Q595 686 602 682Z" />
<glyph unicode="F" glyph-name="F" horiz-adv-x="559" d="M602 684T602 664Q602 645 591 632T561 621Q457 634 377 634Q316 634 256 631Q244 515 223 390Q262 393 310 393Q354 393 401 391T466 386Q492 382 492 358Q492 342 482 330T451 318Q381 323 315 323Q255
323 211 320Q186 179 152 37Q147 23 136 15T107 6Q88 6 80 15T75 38Q92 107 104 162T134 313L89 307Q77 306 70 312T63 332Q63 350 73 362T103 377Q133 381 146 382Q167 503 178 627L149 625Q117 624 117 649Q117 691 158 694L183 695L184 708Q185 725 197 735T229
745Q263 745 262 707V700Q323 703 384 703Q449 703 501 700T576 690Q602 684 602 664Z" />
<glyph unicode="G" glyph-name="G" horiz-adv-x="741" d="M363 619T292 573T179 452T137 292Q137 228 163 178T238 100T354 72Q445 72 499 126T577 286L436 289Q404 290 404 318Q404 338 417 349T447 360L688 355Q722 355 722 328Q722 309 711 298T680 286L651
287Q591 1 354 1Q264 1 197 39T95 144T59 293Q59 397 112 488T255 635T450 690Q522 690 569 665T644 603L652 632Q656 648 666 654T695 660Q711 660 720 653T728 633Q717 564 701 539Q693 527 681 522T657 517Q646 517 638 521T618 539Q593 565 574 581T524 608T450
619Q363 619 292 573Z" />
<glyph unicode="H" glyph-name="H" horiz-adv-x="713" d="M662 351T670 344T678 321Q678 301 666 291T630 280H610L574 37Q571 19 560 9T530 -1Q511 -1 503 8T496 35L532 281L204 286L136 22Q128 -6 93 -6Q59 -6 59 18Q59 25 60 28L127 288H102Q89 288 81 295T72
319Q72 337 83 347T116 358H145L229 687Q234 705 246 713T275 722Q307 722 307 694L305 682L222 357L543 352L592 684Q594 700 605 711T636 722Q654 722 662 712T669 687L620 351H643Q662 351 670 344Z" />
<glyph unicode="I" glyph-name="I" horiz-adv-x="438" d="M483 701T483 677Q483 657 471 645T441 634Q411 636 350 638Q321 476 294 346T231 76L343 75Q359 75 365 69T372 48Q372 28 361 16T330 4L27 8Q2 9 2 36Q2 56 14 67T42 79L156 77Q226 376 272 637L202
633Q142 629 127 629Q118 629 112 636T106 658Q106 677 117 687T145 700Q199 709 304 709Q398 709 457 703Q483 701 483 677Z" />
<glyph unicode="J" glyph-name="J" horiz-adv-x="549" d="M615 697T615 675Q615 631 571 631H520Q490 472 451 258Q407 0 202 0Q114 0 65 49T16 186Q16 221 23 255Q27 279 37 287T70 296Q104 296 104 267Q104 260 103 256Q95 214 95 184Q95 71 197 71Q262 71 308
117T372 263Q404 435 437 600L443 630Q416 629 373 629Q358 629 349 636T340 656Q340 675 350 685T373 697Q421 701 524 701Q569 701 588 700Q615 697 615 675Z" />
<glyph unicode="K" glyph-name="K" horiz-adv-x="607" d="M645 694T654 685T664 663Q664 642 645 629Q548 566 419 490Q365 457 281 410L212 370L247 331Q304 267 353 219Q400 172 432 144T523 67Q533 58 533 44Q533 25 519 12T489 -1Q478 -1 468 6Q435 30 404
59T330 132L300 162Q227 234 169 306Q146 188 118 37Q115 19 103 10T72 0Q56 0 48 8T41 31Q53 101 78 229L106 380L128 509Q136 561 154 665Q157 680 169 689T199 699Q217 699 225 689T231 662Q226 636 223 614T216 571Q205 501 192 430Q234 454 316 504L381 543Q485
605 606 686Q617 694 631 694Q645 694 654 685Z" />
<glyph unicode="L" glyph-name="L" horiz-adv-x="526" d="M151 -1T114 12T61 55T45 134Q45 274 180 672Q185 686 197 694T227 703Q239 703 248 698T258 681Q258 679 256 671L246 641Q186 466 154 348T121 134Q121 105 128 91T156 73T218 68Q266 68 304 73T400
88L435 94L443 95Q457 95 464 88T471 68Q471 30 422 21Q351 9 309 4T217 -1Q151 -1 114 12Z" />
<glyph unicode="M" glyph-name="M" horiz-adv-x="797" d="M725 712T740 680T755 582Q755 434 679 32Q676 15 665 5T635 -6Q617 -6 608 4T601 31Q643 253 664 380T685 568Q685 622 668 622Q650 622 617 579T552 485Q525 441 505 399T454 282Q442 252 405 252Q388
252 379 258T367 280Q361 320 358 353Q349 430 338 480Q325 536 308 580T275 624Q253 624 226 538T173 327Q135 136 119 31Q114 -1 74 -1Q42 -1 42 28Q42 34 43 38Q56 119 81 244Q85 267 89 288T97 328Q134 528 177 620T278 712Q345 712 378 612T418 371Q451 454
497 532T595 661T691 712Q725 712 740 680Z" />
<glyph unicode="N" glyph-name="N" horiz-adv-x="738" d="M720 713T728 701T733 673Q707 516 677 360L665 296Q645 184 627 123T590 37T546 12Q516 12 489 43T431 135T344 319Q291 437 264 495T216 588Q201 508 185 403L176 345Q143 137 123 42Q121 30 109 20T80
10Q63 10 53 19T45 42L53 85L99 346Q111 411 127 516Q135 556 149 643Q155 674 167 690T204 706Q232 706 254 683T299 614T367 470Q376 449 384 432T398 400Q485 208 544 107Q553 136 562 178T574 237Q580 270 589 309Q605 385 655 678Q658 695 670 704T700 713Q720
713 728 701Z" />
<glyph unicode="O" glyph-name="O" horiz-adv-x="792" d="M278 8T211 40T105 134T65 282Q65 397 115 494T255 649T454 707Q544 707 614 668T723 560T763 404Q763 289 712 199T568 59T358 8Q278 8 211 40ZM456 79T529 121T643 238T685 404Q685 473 657 525T578
607T458 636Q369 636 297 587T184 457T143 285Q143 212 175 166T257 100T366 79Q456 79 529 121Z" />
<glyph unicode="P" glyph-name="P" horiz-adv-x="611" d="M449 705T505 679T593 607T626 502Q626 429 585 375T474 291T323 262Q237 262 183 293L134 31Q131 13 119 3T88 -7Q69 -7 61 4T55 30Q69 112 83 181L109 318Q130 435 148 562L144 560Q134 555 126 555Q115
555 109 564T102 588Q102 606 110 615T141 635Q157 643 160 645L163 661Q170 706 212 706Q230 706 239 700T246 684V681Q312 705 382 705Q449 705 505 679ZM379 328T429 350T510 412T540 502Q540 561 492 598T370 635Q315 635 233 602Q229 567 222 533L218 508Q214
488 212 470T207 436Q199 381 195 360Q245 328 320 328Q379 328 429 350Z" />
<glyph unicode="Q" glyph-name="Q" horiz-adv-x="781" d="M677 86Q686 76 686 65Q686 47 671 33T638 18Q621 18 612 29L566 84Q514 50 454 32T331 13Q244 13 184 49T95 149T65 292Q65 405 121 501T272 654T474 711Q551 711 615 673T716 566T754 413Q754 335 722
264T633 138L677 86ZM381 84T428 99T518 141L460 211Q453 219 453 229Q453 244 471 259T506 275Q516 275 522 269L584 196Q627 242 651 297T676 413Q676 479 650 530T576 611T468 640Q384 640 309 591T189 461T144 292Q144 197 194 141T333 84Q381 84 428 99Z"
/>
<glyph unicode="R" glyph-name="R" horiz-adv-x="641" d="M630 440T586 389T468 310T310 283Q253 283 204 296L523 86Q538 76 538 62Q538 44 526 29T493 13Q485 13 476 16T462 24L166 235L157 187L130 30Q127 13 116 4T87 -5Q70 -5 62 4T53 27Q53 33 54 36Q72
125 84 197T114 375Q133 493 143 562Q137 560 134 560Q121 560 118 569T115 595Q115 609 122 617T147 635L154 638L157 659Q160 682 171 692T202 702Q239 702 235 674V672Q276 688 310 694T381 700Q456 700 512 677T599 611T630 511Q630 440 586 389ZM345 629T308
621T224 594Q206 458 190 366Q241 351 314 351Q413 351 478 392T544 511Q544 565 500 597T381 629Q345 629 308 621Z" />
<glyph unicode="S" glyph-name="S" horiz-adv-x="563" d="M166 1T110 52T54 193Q54 228 64 241T100 255Q124 255 129 244T135 197Q136 131 170 101T263 71Q331 71 376 107T421 199Q421 232 404 253T359 287T280 317Q233 332 197 350T133 404T105 495Q105 554 138
602T228 679T351 707Q409 707 454 685T525 625T551 537Q551 501 539 489T504 476Q484 476 478 483T471 504L472 525Q472 572 441 604T351 637Q306 637 267 617T206 564T183 494Q183 463 199 444T239 414T304 390L330 381Q400 357 449 316T498 195Q498 137 468 93T385
25T265 1Q166 1 110 52Z" />
<glyph unicode="T" glyph-name="T" horiz-adv-x="557" d="M580 687T588 681T596 660Q596 641 584 629T551 617Q457 624 389 625Q361 512 324 335Q282 137 264 32Q260 11 249 1T215 -10Q197 -10 189 -3T181 20Q181 31 184 46Q205 150 246 334L312 625Q231 623 141
614Q108 611 108 643Q108 661 118 671T145 684Q206 690 252 693T364 696Q416 696 479 694T566 689Q580 687 588 681Z" />
<glyph unicode="U" glyph-name="U" horiz-adv-x="667" d="M646 708T655 700T664 679Q664 674 663 671Q640 544 620 416Q603 304 556 31Q550 -2 513 -2Q480 -2 480 26Q480 34 481 38L494 114Q459 64 402 33T273 2Q205 2 159 30T91 104T69 199Q69 232 85 318T138
585L155 669Q161 702 198 702Q214 702 223 696T232 676Q232 671 231 668Q187 464 168 358T149 199Q149 141 180 107T273 73Q331 73 385 104T475 183T522 282Q536 355 555 469T588 673Q593 708 629 708Q646 708 655 700Z" />
<glyph unicode="V" glyph-name="V" horiz-adv-x="668" d="M279 0T259 12T231 48Q212 104 174 373Q163 446 152 547Q143 626 138 667L137 683Q137 694 149 701T180 708Q195 708 203 700T212 681Q221 615 237 477L247 386Q264 252 273 193T290 109T309 84Q321 84
338 108T385 195T475 386L609 687Q615 698 622 702T641 706Q658 706 670 698T683 677Q683 671 680 663Q633 558 549 376Q426 107 387 48Q357 0 305 0Q279 0 259 12Z" />
<glyph unicode="W" glyph-name="W" horiz-adv-x="878" d="M217 2T204 11T188 38Q180 100 172 259Q168 346 165 385Q162 429 152 504Q139 602 139 655Q139 666 140 671Q143 685 155 694T186 704Q201 704 208 698T217 676Q219 660 219 653Q235 502 242 402L248 305Q253
213 257 166T266 119Q270 119 281 135T302 167T317 193L355 256L370 281Q415 354 435 381T469 409Q483 409 494 386T527 294L544 244L562 189Q574 150 580 135T591 119Q594 119 606 148T629 206T647 254Q670 318 703 401Q730 468 738 489Q806 657 814 677Q819 690
830 696T856 703Q889 703 889 666Q889 662 886 656Q859 601 818 495L775 386Q748 319 715 229Q682 136 643 44Q626 4 583 4Q565 4 552 18T525 62T492 154Q485 175 470 235Q465 256 461 272T453 288Q449 288 438 271T419 239T406 217Q389 184 362 141Q325 82 304
53T268 13T236 2Q217 2 204 11Z" />
<glyph unicode="X" glyph-name="X" horiz-adv-x="664" d="M683 642T667 626L401 338L558 58Q565 48 565 37Q565 21 549 9T515 -4Q499 -4 491 11L342 275Q279 206 131 47L99 12Q89 2 83 0T65 -3Q48 -3 34 10T21 36Q23 45 27 51T38 63L64 90Q140 172 199 236T302
346Q184 557 139 641Q132 652 135 661Q137 677 151 688T184 699Q194 699 200 693T215 672Q275 562 361 409L609 675Q619 687 626 692T642 697Q660 697 671 684T683 654Q683 642 667 626Z" />
<glyph unicode="Y" glyph-name="Y" horiz-adv-x="655" d="M270 3T262 14T256 41L304 328Q258 345 206 459Q183 508 172 547T145 655Q144 658 144 665Q144 682 158 691T191 700Q218 700 226 665Q242 600 251 568T276 496Q291 456 312 423T351 390Q368 390 398 419T468
498Q499 538 524 576T583 669Q594 687 600 692T617 698Q634 698 647 690T660 668Q660 658 654 649Q587 531 529 457Q483 400 444 368T381 328L334 43Q326 3 289 3Q270 3 262 14Z" />
<glyph unicode="Z" glyph-name="Z" horiz-adv-x="673" d="M509 19T501 19Q450 23 402 26T296 29Q229 29 119 25L52 23Q27 23 18 30T9 49Q9 73 52 116T209 258Q275 315 357 388Q493 509 535 548T612 623Q497 612 424 612Q365 612 293 617T187 631Q155 639 155 660Q155
678 166 689T198 701L219 698Q341 682 429 682Q471 682 514 685T619 693L656 696Q667 697 680 694T701 683Q714 673 714 658Q714 628 657 572T464 395Q462 393 420 357L287 241Q217 182 182 150T121 91Q256 98 341 98Q400 98 444 95T548 85Q561 83 568 76T576 58Q576
40 562 27T529 17Q509 19 501 19Z" />
<glyph unicode="[" glyph-name="bracketleft" horiz-adv-x="336" d="M42 -163T-11 -154Q36 50 76 296Q97 418 111 516T140 742Q205 746 339 746Q366 746 366 715Q366 699 355 691T326 682H266Q208 682 200 681L193 636Q163 425 141 299Q93 30 66 -98L128 -100Q150
-100 162 -99L200 -98Q222 -98 222 -119Q222 -138 212 -148T183 -160Q148 -163 80 -163Q42 -163 -11 -154Z" />
<glyph unicode="\" glyph-name="backslash" horiz-adv-x="484" d="M326 0T319 6T309 24L178 860Q177 863 177 870Q177 885 191 899T224 913Q250 913 254 888L384 54V43Q384 24 370 12T335 0Q326 0 319 6Z" />
<glyph unicode="]" glyph-name="bracketright" horiz-adv-x="336" d="M70 -162T10 -160Q-16 -158 -16 -136Q-16 -120 -7 -109T18 -98L98 -99Q134 -99 152 -98Q172 43 217 299Q241 438 281 626L293 685Q270 686 253 686T223 685Q206 684 172 684Q156 684 147 690T137
709Q137 723 145 734T171 745Q339 745 374 742Q345 622 327 529T283 296Q223 -50 209 -154Q166 -162 114 -162Q70 -162 10 -160Z" />
<glyph unicode="^" glyph-name="asciicircum" horiz-adv-x="610" d="M98 214T89 220T79 236Q79 241 80 244Q170 452 250 576T378 701Q429 701 469 581T533 256Q535 237 525 225T496 213Q486 213 478 218T469 234Q462 320 447 414T413 570T378 633Q361 633 319
570T227 413T140 233Q135 222 129 218T110 214Q98 214 89 220Z" />
<glyph unicode="_" glyph-name="underscore" horiz-adv-x="554" d="M-53 -123T-60 -116T-68 -95Q-68 -78 -56 -67T-27 -56L175 -57Q369 -59 480 -59Q493 -59 500 -66T507 -86Q507 -104 497 -116T468 -128Q327 -128 185 -125Q17 -123 -39 -123Q-53 -123 -60 -116Z" />
<glyph unicode="`" glyph-name="grave" horiz-adv-x="314" d="M278 490T269 500L125 673Q115 683 115 692Q115 704 128 717T154 730Q166 730 177 716Q269 605 323 542Q329 536 329 524Q329 511 317 501T291 490Q278 490 269 500Z" />
<glyph unicode="a" glyph-name="a" horiz-adv-x="623" d="M554 458T551 446T545 428Q539 414 529 377Q512 314 495 224T477 100Q477 83 483 75T505 65Q517 63 523 59T529 44Q529 26 520 14T494 2Q454 2 437 14T412 61Q357 -9 249 -9Q182 -9 138 19T73 93T52 189Q52
272 86 341T183 452T326 493Q376 493 413 472T466 417L476 450Q481 467 490 477T517 487Q534 487 544 481T554 464Q554 458 551 446ZM434 300T434 325Q434 380 400 405T326 430Q271 430 227 395T157 304T131 189Q131 132 158 94T251 55Q310 55 354 85T409 173Q434
300 434 325Z" />
<glyph unicode="b" glyph-name="b" horiz-adv-x="637" d="M419 506T471 481T552 408T582 299Q582 211 545 143T442 36T292 -3Q248 -3 209 10T143 43T109 81Q100 59 80 40T43 14Q35 10 26 10Q12 10 5 20T-3 44Q-3 54 10 62Q37 78 48 101Q56 118 61 141T76 231Q80
255 85 292T100 385L118 496Q161 771 170 839Q171 854 184 862T214 871Q230 871 239 863T246 841Q235 756 209 593L185 438Q251 506 355 506Q419 506 471 481ZM354 60T402 92T477 178T504 297Q504 367 464 405T355 443Q300 443 252 413T174 346L158 256Q154 232
150 204T146 166Q146 137 166 113T219 75T292 60Q354 60 402 92Z" />
<glyph unicode="c" glyph-name="c" horiz-adv-x="588" d="M206 1T155 29T78 103T51 205Q51 288 90 359T198 471T350 513Q400 513 447 492T524 436T553 362Q553 329 514 329Q499 329 490 336T481 356Q481 378 465 400T418 436T350 450Q290 450 239 415T157 322T127
205Q127 143 166 104T275 64Q327 64 372 85T443 138T469 201Q469 211 479 218T504 225Q520 225 528 220T537 200Q537 144 499 99T400 27T275 1Q206 1 155 29Z" />
<glyph unicode="d" glyph-name="d" horiz-adv-x="634" d="M172 -4T112 46T52 194Q52 279 92 351T201 465T352 507Q413 507 456 486T521 428L603 842Q606 856 618 865T646 874Q663 874 672 865T679 840L547 152Q544 135 543 116T542 88Q543 71 553 59T563 45Q563
42 555 31T535 9T513 -1Q491 -1 476 23T461 82Q393 -4 269 -4Q172 -4 112 46ZM326 64T367 83T436 133T471 201L500 354Q487 391 445 415T350 440Q290 440 240 408T160 322T130 208Q130 138 172 101T279 64Q326 64 367 83Z" />
<glyph unicode="e" glyph-name="e" horiz-adv-x="619" d="M214 -4T162 25T83 104T56 212Q56 292 95 361T204 472T357 513Q418 513 466 491T540 430T567 338Q567 288 553 265T504 241L129 233Q127 215 127 208Q127 144 171 103T286 61Q328 61 360 73T411 102T461
147Q470 156 481 156Q493 156 504 148T515 128Q515 115 503 102Q476 71 453 51T388 14T286 -4Q214 -4 162 25ZM486 302Q498 302 501 309T504 337Q504 388 464 419T357 451Q302 451 254 423T175 357T140 293L486 302Z" />
<glyph unicode="f" glyph-name="f" horiz-adv-x="389" d="M399 740T433 709T468 624Q468 610 465 595Q461 568 450 557T418 546Q399 546 391 556T386 580Q391 610 391 627Q391 652 380 663T341 675Q297 675 274 639T239 530L229 467Q225 449 223 434T218 405H297Q310
405 316 398T323 380Q323 345 287 344Q263 343 208 343L156 34Q153 16 142 8T113 0Q78 0 83 33Q94 97 116 241L132 342L72 339Q42 339 42 362Q42 379 50 390T82 402Q112 404 142 404Q158 509 163 539Q195 740 341 740Q399 740 433 709Z" />
<glyph unicode="g" glyph-name="g" horiz-adv-x="580" d="M524 530T536 523T549 505Q549 499 546 493Q538 477 512 418L508 294Q504 206 504 171Q504 78 491 -22Q476 -135 402 -192T215 -250Q163 -250 121 -231T55 -177T31 -101Q31 -78 41 -67T75 -56Q99 -56 99
-80Q99 -127 131 -156T215 -185Q299 -185 349 -148T415 -25Q421 11 425 78Q395 44 351 24T250 4Q186 4 140 33T69 110T45 213Q45 292 82 359T182 466T323 506Q369 506 402 493T453 460Q476 505 481 515Q489 530 511 530Q524 530 536 523ZM293 75T328 89T391 126T428
169L431 269Q433 339 435 375Q432 388 416 402T374 427T318 437Q264 437 219 406T148 322T121 213Q121 153 156 114T261 75Q293 75 328 89Z" />
<glyph unicode="h" glyph-name="h" horiz-adv-x="564" d="M448 515T487 469T526 332Q526 252 487 30Q485 17 473 9T444 0Q427 0 418 8T412 34Q432 153 441 220T451 332Q451 389 433 417T372 446Q332 446 295 423T231 367T191 304Q179 276 170 232T149 110Q145
87 142 67T135 29Q133 17 120 9T91 1Q74 1 65 9T58 30Q97 249 132 420Q158 546 206 750Q215 785 250 785Q282 785 282 763Q282 757 281 753Q273 725 206 428Q276 515 377 515Q448 515 487 469Z" />
<glyph unicode="i" glyph-name="i" horiz-adv-x="306" d="M203 566T189 579T174 616Q174 646 196 668T250 690Q274 690 288 677T302 640Q302 610 279 588T226 566Q203 566 189 579ZM94 6T85 15T79 39L164 464Q167 481 179 490T209 499Q227 499 236 490T242 463L157
39Q153 23 141 15T112 6Q94 6 85 15Z" />
<glyph unicode="j" glyph-name="j" horiz-adv-x="336" d="M237 567T222 581T207 619Q207 647 229 668T282 689Q307 689 321 675T336 638Q336 608 313 588T261 567Q237 567 222 581ZM-71 -236T-106 -204T-141 -113Q-141 -83 -130 -69T-93 -55Q-75 -55 -71 -64T-66
-103Q-66 -138 -58 -155T-17 -173Q37 -173 67 -122T117 24Q135 107 158 234T189 397L202 468Q204 481 215 489T245 498Q264 498 272 489T278 466Q218 149 191 24Q162 -111 110 -173T-17 -236Q-71 -236 -106 -204Z" />
<glyph unicode="k" glyph-name="k" horiz-adv-x="531" d="M73 -5T64 3T56 23L181 730Q184 746 195 755T225 764Q243 764 252 756T258 730L193 376L283 422Q429 496 494 532Q511 541 518 541Q531 541 538 530T546 504Q546 498 545 495Q543 484 519 471L179 288L452
66Q459 59 459 50Q459 34 444 19T413 4Q398 4 385 15Q361 33 285 95Q193 170 162 194L131 24Q129 11 117 3T89 -5Q73 -5 64 3Z" />
<glyph unicode="l" glyph-name="l" horiz-adv-x="251" d="M63 9T54 18T48 44L167 756Q170 773 183 782T214 792Q229 792 238 785T245 765L124 44Q121 27 109 18T80 9Q63 9 54 18Z" />
<glyph unicode="m" glyph-name="m" horiz-adv-x="797" d="M668 511T703 472T738 368Q738 310 684 32Q682 19 671 10T642 0Q624 0 616 10T611 34L616 59Q643 207 653 270T664 368Q664 451 599 451Q543 451 509 397T460 263Q436 139 420 34Q416 2 378 2Q357 2 349
12T344 36L371 184L384 258Q390 293 390 324Q390 379 371 413T314 447Q279 447 246 410T185 294Q171 255 164 226T151 160Q150 153 146 132Q136 80 129 31Q127 18 116 10T87 2Q70 2 63 10T57 32L85 195Q120 401 120 415Q120 435 108 449Q107 451 104 454T100 463Q100
477 112 488T137 499Q152 499 163 485T179 455Q183 441 183 425Q183 416 182 411L181 404Q231 508 322 508Q373 508 403 476T442 392Q489 511 601 511Q668 511 703 472Z" />
<glyph unicode="n" glyph-name="n" horiz-adv-x="554" d="M424 509T462 470T501 355Q501 321 491 259T459 77L451 32Q449 18 438 10T408 1Q390 1 381 9T374 32L382 77Q400 179 412 254T425 354Q425 398 409 420T356 442Q299 442 256 399T188 290Q169 238 159 174L134
29Q132 15 121 8T92 0Q73 0 65 8T58 29Q60 45 62 51Q97 265 114 388Q115 394 115 404Q115 416 111 428T100 457Q98 463 98 467Q98 480 113 491T142 502Q155 502 166 483Q173 472 180 449T185 415L181 397Q206 446 249 477T356 509Q424 509 462 470Z" />
<glyph unicode="o" glyph-name="o" horiz-adv-x="593" d="M167 0T100 51T32 214Q32 295 69 364T175 475T329 517Q397 517 450 490T534 411T565 283Q565 201 529 137T425 37T270 0Q167 0 100 51ZM337 62T386 90T461 169T487 283Q487 362 444 407T329 453Q265 453
216 421T139 333T111 214Q111 133 157 98T270 62Q337 62 386 90Z" />
<glyph unicode="p" glyph-name="p" horiz-adv-x="617" d="M417 513T467 487T547 412T578 299Q578 211 543 143T444 37T293 -1Q231 -1 180 16T111 50L89 -56L61 -192Q58 -207 46 -215T17 -224Q-2 -224 -9 -213T-14 -189L1 -120Q30 4 52 118Q75 237 84 297T94 384Q94
415 78 441Q78 442 75 445T71 456Q71 470 88 483T119 496Q129 496 137 488Q157 465 164 424Q191 459 240 486T359 513Q417 513 467 487ZM354 63T401 95T474 180T500 299Q500 370 460 408T359 447Q309 447 266 425T194 372T163 324L159 301Q134 162 129 135Q131
122 155 105T215 75T290 63Q354 63 401 95Z" />
<glyph unicode="q" glyph-name="q" horiz-adv-x="641" d="M609 485T617 476T626 457Q626 448 614 433L560 360Q520 163 492 14Q487 -15 483 -37T475 -77Q459 -153 450 -207Q448 -220 436 -228T405 -237Q388 -237 379 -229T372 -209L425 59Q360 -2 259 -2Q197 -2
147 23T68 97T38 213Q38 295 76 363T181 472T329 512Q397 512 448 483T519 409Q538 437 561 465Q572 478 578 481T591 485Q609 485 617 476ZM459 214T471 287Q474 300 478 324Q477 348 460 377T408 427T326 448Q267 448 219 415T144 328T116 213Q116 139 156 102T259
64Q297 64 336 77T404 109T443 147Q459 214 471 287Z" />
<glyph unicode="r" glyph-name="r" horiz-adv-x="502" d="M401 514T435 481T469 394Q469 328 429 293T327 257Q309 257 302 261T294 277Q294 310 325 312Q364 316 383 337T403 394Q403 419 389 435T343 451Q303 451 267 417T206 333T168 233Q153 168 131 59Q124
18 115 5T83 -8Q64 -8 57 -1T50 20Q50 24 52 38L85 230Q97 297 103 355T114 494Q115 509 127 518T157 527Q187 527 185 497Q180 443 171 380Q198 444 242 479T343 514Q401 514 435 481Z" />
<glyph unicode="s" glyph-name="s" horiz-adv-x="486" d="M145 -5T97 29T32 114Q28 126 28 133Q31 147 45 157T75 168Q84 168 89 163T101 143Q118 109 146 85T217 60Q264 60 296 84T328 144Q328 172 304 188T229 223Q183 241 155 256T106 299T85 366Q85 410 108
445T174 500T276 521Q347 521 392 484T438 385Q438 357 430 347T399 337Q383 337 375 345T368 365Q371 412 347 434T276 456Q215 456 189 430T162 366Q162 338 187 321T264 283Q309 265 337 249T386 208T406 144Q406 72 352 34T214 -5Q145 -5 97 29Z" />
<glyph unicode="t" glyph-name="t" horiz-adv-x="440" d="M371 163T371 137Q371 102 354 70T308 19T243 0Q185 0 153 39T121 151Q121 225 161 390Q138 391 97 395Q68 397 72 428Q76 444 85 451T109 458Q120 458 178 454Q188 493 197 524T214 582L231 640Q240 670
274 670Q290 670 299 663T309 644Q309 641 307 635Q271 525 251 450Q297 448 322 448Q340 448 348 444T356 430Q356 406 345 397T313 388H234Q195 239 195 150Q195 109 206 87T243 64Q267 64 286 80T305 129Q305 143 315 153T344 163Q371 163 371 137Z" />
<glyph unicode="u" glyph-name="u" horiz-adv-x="547" d="M436 110Q434 96 434 91Q434 73 440 59T446 40Q446 29 433 18T408 7Q387 7 373 26T359 68V76Q330 39 286 20T192 0Q55 0 55 150Q55 178 65 241T88 370Q104 453 107 474Q109 487 121 495T149 503Q166 503
175 495T183 474Q177 439 172 410T162 356Q151 295 142 238T132 156Q132 109 151 86T211 63Q345 63 389 308L419 475Q422 491 433 500T462 509Q480 509 489 500T496 475L436 110Z" />
<glyph unicode="v" glyph-name="v" horiz-adv-x="529" d="M188 6T157 66T107 224Q98 275 93 330T87 427Q87 465 96 483T136 502Q155 502 161 493T167 463L166 427Q166 352 179 258Q190 192 206 143T233 93Q245 93 278 140T350 258Q420 385 445 474Q449 489 460
498T488 507Q503 507 511 499T520 477Q520 453 489 377T414 222Q356 118 310 62T226 6Q188 6 157 66Z" />
<glyph unicode="w" glyph-name="w" horiz-adv-x="776" d="M179 2T154 54T118 183T106 334Q106 420 115 472Q120 495 128 506T161 517Q195 517 193 486Q191 470 191 462Q182 376 182 337Q182 252 193 170T227 87Q239 87 273 158T374 385Q383 406 394 416T422 426Q439
426 446 417T456 385L469 285Q481 182 491 137T520 91Q534 91 551 125T596 226Q632 316 645 360T677 483Q680 497 689 506T720 516Q752 516 752 489Q752 452 718 348T653 176Q575 2 515 2Q484 2 459 44T420 158T404 317Q359 177 310 90T215 2Q179 2 154 54Z" />
<glyph unicode="x" glyph-name="x" horiz-adv-x="509" d="M472 467T467 462L301 271L365 164L432 52Q436 46 436 40Q436 24 422 12T391 0Q376 0 369 12L249 212Q225 184 99 40L73 11Q61 -2 44 -2Q29 -2 20 7T11 28Q11 39 17 46L214 270L165 352L100 461Q99 463
99 467T99 475Q100 486 115 497T145 509Q158 509 164 500Q230 390 266 329L341 414L416 499Q427 510 437 510Q451 510 461 500T472 475Q472 467 467 462Z" />
<glyph unicode="y" glyph-name="y" horiz-adv-x="522" d="M106 -259T98 -249T91 -223Q93 -214 96 -209L124 -158Q213 5 239 56Q204 82 168 151T108 305T84 465V478Q84 487 95 497T127 508Q142 508 146 502T152 481Q157 389 177 313T223 185T273 112L326 227Q405
399 440 485Q446 500 454 505T477 511Q514 511 515 481Q515 476 512 470Q456 337 419 255T335 83Q293 2 244 -88T164 -232Q149 -259 124 -259Q106 -259 98 -249Z" />
<glyph unicode="z" glyph-name="z" horiz-adv-x="556" d="M329 7T258 7Q222 7 119 2L56 0Q30 0 17 6T4 26Q4 44 27 65Q257 272 449 438Q432 438 392 434Q320 429 288 429Q241 429 200 433T140 442Q116 449 116 466Q116 481 126 495T154 506Q250 493 324 493Q363
493 440 500Q490 504 508 504Q539 504 548 499T558 480Q558 464 551 453T532 431Q429 339 312 238Q173 118 114 65L160 67Q230 71 279 71Q352 71 429 62Q449 59 449 38Q449 21 438 9T410 -2Q329 7 258 7Z" />
<glyph unicode="{" glyph-name="braceleft" horiz-adv-x="399" d="M159 -180T122 -136T84 -23Q84 4 95 64Q109 140 109 183Q109 237 86 251Q60 267 60 290Q60 305 71 320T100 341Q118 346 138 405T177 575Q187 631 216 675T288 744T380 769Q409 769 423 764T437
742Q437 698 379 698Q317 698 286 662T240 536Q222 432 198 374T137 297Q158 277 167 252T177 186Q177 145 165 69Q155 5 155 -15Q155 -110 243 -110Q259 -110 268 -118T277 -139Q277 -154 262 -167T228 -180Q159 -180 122 -136Z" />
<glyph unicode="|" glyph-name="bar" horiz-adv-x="265" d="M55 -92T47 -86T41 -68Q93 191 132 408Q172 629 212 871Q213 880 223 886T247 892Q259 892 267 887T275 873Q265 820 244 697Q214 517 194 410Q133 81 103 -68Q101 -79 92 -85T68 -92Q55 -92 47 -86Z" />
<glyph unicode="}" glyph-name="braceright" horiz-adv-x="399" d="M6 -180T-3 -173T-13 -153Q-13 -137 0 -126T33 -114Q144 -114 173 43Q187 123 202 170T236 246T286 297Q253 319 253 392Q253 416 257 450T266 517Q276 587 276 605Q276 657 254 679T183 702Q162
702 150 707T137 729Q137 756 154 762T206 769Q270 769 307 728T344 620Q344 591 333 525Q319 439 319 394Q319 346 334 341Q347 337 354 327T361 304Q361 290 349 276T317 251Q286 236 270 182T235 22Q225 -33 196 -79T122 -152T23 -180Q6 -180 -3 -173Z" />
<glyph unicode="~" glyph-name="asciitilde" horiz-adv-x="540" d="M328 273T274 291Q269 293 253 299T221 308T189 311Q162 311 139 301Q135 299 123 294T102 288Q94 288 87 295T79 313Q79 320 87 332Q101 349 136 360T207 371Q228 371 248 365T305 347Q350 332
380 332Q398 332 430 346Q450 355 457 355Q470 355 479 344T485 322Q483 316 480 313T469 303Q449 289 423 281T374 273Q328 273 274 291Z" />
<glyph unicode="&#xa0;" glyph-name="uni00A0" horiz-adv-x="320" />
<glyph unicode="&#xa1;" glyph-name="exclamdown" horiz-adv-x="265" d="M137 391T122 406T107 442Q107 469 130 490T180 512Q201 512 216 497T232 459Q232 434 209 413T159 391Q137 391 122 406ZM43 -196T37 -187T32 -162L121 308Q124 324 132 332T154 341Q167
341 173 331T177 304L90 -162Q88 -178 79 -187T56 -196Q43 -196 37 -187Z" />
<glyph unicode="&#xa2;" glyph-name="cent" horiz-adv-x="588" d="M290 450T239 415T157 322T127 205Q127 143 166 104T275 64Q327 64 372 85T443 138T469 201Q469 211 479 218T504 225Q520 225 528 220T537 200Q537 145 500 100T404 29T283 1L269 -71Q268 -82
261 -87T243 -93Q219 -93 222 -72L236 3Q150 15 101 72T51 205Q51 284 87 352T186 463T327 512L341 587Q342 597 349 602T367 607Q391 607 388 587L374 512Q420 507 461 486T528 431T553 362Q553 329 514 329Q499 329 490 336T481 356Q481 378 465 400T418 436T350
450Q290 450 239 415Z" />
<glyph unicode="&#xa3;" glyph-name="sterling" horiz-adv-x="595" d="M462 700T508 661T555 553Q555 543 553 523Q551 503 543 495T518 486Q503 486 498 493T493 517V541Q493 594 464 619T386 644Q342 644 305 623T246 568T224 495Q224 464 231 436T252 368L264
330L397 328Q418 328 427 323T433 303Q431 289 421 285T388 280L275 281Q278 263 278 244Q278 163 228 98L265 84Q295 71 320 63T372 55Q403 55 421 67T464 110Q473 120 479 124T493 129Q503 129 512 122T521 104Q521 97 515 88Q488 47 449 24T360 0Q325 0 299
7T242 29Q219 40 203 45T169 50Q142 50 123 40T76 7Q60 -5 50 -5Q38 -5 30 4T22 23Q22 29 24 33T30 40T34 45Q50 65 88 84T164 108Q216 169 216 244Q216 264 213 282L124 283Q106 283 97 288T90 308Q93 322 103 326T132 331L201 330Q196 347 184 379Q169 423 163
446T157 495Q157 550 189 597T274 672T386 700Q462 700 508 661Z" />
<glyph unicode="&#xa4;" glyph-name="currency" horiz-adv-x="841" d="M635 26T620 43L577 94Q533 67 490 55T398 42Q349 42 299 57T214 101L149 43Q128 26 118 26Q104 26 93 36T82 62Q82 67 86 72T92 79Q95 83 167 148Q143 180 131 222T118 307Q118 375 149 438T235
554L191 606Q183 616 183 626Q183 641 197 655T230 669Q240 669 246 665T260 651L298 606Q342 634 386 647T485 660Q537 660 587 644T670 601L725 651Q746 670 762 670Q774 670 785 661T796 639Q796 621 778 606L717 552Q738 522 749 483T761 401Q761 329 730 265T640
148L690 80Q695 74 695 66Q695 51 679 39T648 26Q635 26 620 43ZM472 107T537 148T642 257T682 401Q682 459 656 503T585 572T485 597Q411 597 345 557T238 451T198 310Q198 253 224 207T295 134T398 107Q472 107 537 148Z" />
<glyph unicode="&#xa5;" glyph-name="yen" horiz-adv-x="655" d="M460 372T403 338L517 340Q536 340 536 321Q536 309 529 300T508 291L375 289L366 238L498 240Q508 240 513 235T519 222Q519 208 511 200T490 191L358 189L334 43Q326 3 289 3Q270 3 262 14T256
41L281 188L146 186Q126 186 126 207Q126 218 133 226T154 235L289 237L297 288L163 286Q154 286 149 291T143 305Q143 318 151 326T172 335L288 337Q249 365 206 459Q183 508 172 547T145 655Q144 658 144 665Q144 682 158 691T191 700Q218 700 226 665Q242 600
251 568T276 496Q291 456 312 423T351 390Q368 390 398 419T468 498Q499 538 524 576T583 669Q594 687 600 692T617 698Q634 698 647 690T660 668Q660 658 654 649Q587 531 529 457Q460 372 403 338Z" />
<glyph unicode="&#xa6;" glyph-name="brokenbar" horiz-adv-x="271" d="M156 443T149 449T144 469L210 865Q212 877 222 884T247 891Q277 891 272 865L206 469Q204 456 195 450T171 443Q156 443 149 449ZM58 -92T51 -85T46 -65L119 332Q125 361 155 361Q186 361
181 332L109 -65Q105 -92 73 -92Q58 -92 51 -85Z" />
<glyph unicode="&#xa7;" glyph-name="section" horiz-adv-x="644" d="M467 760T509 743T577 694T602 621Q602 606 599 589Q592 556 562 556Q532 556 537 579Q539 589 539 606Q539 655 508 679T418 704Q371 704 332 687T270 638T247 567Q247 529 278 500T387 449Q477
423 518 380T559 287Q559 239 528 199T447 134Q483 94 483 35Q483 -23 454 -68T372 -138T255 -163Q196 -163 150 -141T79 -78T53 11Q53 23 57 51Q59 64 69 71T95 79Q108 79 115 72T120 52Q117 36 117 21Q117 -35 152 -71T255 -107Q301 -107 338 -89T397 -37T419
37Q419 84 385 109T275 157Q103 208 103 319Q103 368 132 415T207 493Q184 527 184 571Q184 622 214 665T297 734T418 760Q467 760 509 743ZM281 419T241 454Q210 434 189 396T168 321Q168 282 197 257T304 210Q363 194 398 173Q440 188 468 220T496 287Q496 324
461 350T349 399Q281 419 241 454Z" />
<glyph unicode="&#xa8;" glyph-name="dieresis" horiz-adv-x="376" d="M103 576T90 589T76 623Q76 651 96 670T143 689Q165 689 179 676T193 643Q193 616 172 596T124 576Q103 576 90 589ZM343 576T330 589T316 623Q316 651 336 670T383 689Q405 689 418 676T432
643Q432 616 412 596T364 576Q343 576 330 589Z" />
<glyph unicode="&#xa9;" glyph-name="copyright" horiz-adv-x="894" d="M626 706T693 665T795 557T830 413Q830 302 777 207T631 56T427 0Q330 0 257 42T145 155T106 306Q106 417 163 509T317 653T532 706Q626 706 693 665ZM523 54T601 102T725 232T771 413Q771
517 712 585T532 653Q435 653 350 605T215 477T164 306Q164 235 196 178T288 87T427 54Q523 54 601 102ZM653 563T660 558T666 545Q657 493 648 471T621 447Q604 447 598 455Q575 488 558 501T510 515Q463 515 422 483T356 400T331 296Q331 240 363 214T454 188Q511
188 543 217T583 286Q585 296 594 301T616 307Q629 307 636 302T641 286Q629 222 576 181T442 139Q367 139 318 178T268 294Q268 361 301 424T390 526T511 565Q544 565 568 553T613 517L618 543Q622 563 641 563Q653 563 660 558Z" />
<glyph unicode="&#xaa;" glyph-name="ordfeminine" horiz-adv-x="355" d="M358 694T354 683T347 653Q325 538 325 523Q325 514 328 511T341 506Q348 504 350 502T350 491Q347 481 343 476T329 471Q295 471 287 494L285 502Q270 484 252 476T209 468Q156 468 131
496T106 566Q106 606 124 643T174 704T248 728Q272 728 290 720T317 698L319 707Q321 714 328 719T344 725Q353 725 360 720T364 707Q358 694 354 683ZM239 509T259 523T285 565L297 628Q298 632 298 641Q298 662 284 675T245 688Q213 688 193 668T163 620T154
567Q154 509 210 509Q239 509 259 523Z" />
<glyph unicode="&#xab;" glyph-name="guillemotleft" horiz-adv-x="568" d="M241 196T196 223T116 289T82 359Q82 392 132 435T247 510T346 542Q371 542 371 522Q371 507 361 498T331 482Q292 473 248 448T172 395T140 359Q140 349 162 327T216 284T279 255Q291
251 297 243T304 225Q304 213 295 205T272 196Q241 196 196 223ZM432 190T386 218T306 285T272 354Q272 385 322 428T437 504T533 537Q543 537 549 531T556 513Q556 498 548 490T524 477Q480 465 436 440T363 390T334 354Q334 344 354 323T406 282T471 250Q496
241 496 223Q496 210 486 200T462 190Q432 190 386 218Z" />
<glyph unicode="&#xac;" glyph-name="logicalnot" horiz-adv-x="769" d="M654 187T647 194T640 211Q640 219 641 223L649 269Q670 389 673 410L425 411L134 410Q95 410 95 434Q95 476 142 476L443 477H709Q726 477 735 469T743 446L706 222Q700 187 667 187Q654
187 647 194Z" />
<glyph unicode="&#xad;" glyph-name="uni00AD" horiz-adv-x="381" d="M59 240T53 248T46 268Q46 287 56 298T81 310Q153 313 317 313Q349 313 349 286Q349 269 336 257T303 245Q230 245 156 242Q94 240 70 240Q59 240 53 248Z" />
<glyph unicode="&#xae;" glyph-name="registered" horiz-adv-x="894" d="M626 710T694 668T796 557T830 410Q830 298 777 204T631 55T426 0Q329 0 257 40T145 147T106 295Q106 405 163 500T318 653T529 710Q626 710 694 668ZM521 52T601 101T728 233T775 410Q775
477 749 533T667 624T529 658Q433 658 349 609T214 479T164 306Q164 236 196 178T287 86T425 52Q521 52 601 101ZM576 555T611 528T647 451Q647 380 592 344T446 307Q441 307 425 309L582 186Q588 182 588 175Q588 164 577 153T554 141Q545 141 540 146L382 282L361
165Q359 154 351 146T328 138Q303 138 307 165L314 200Q317 213 322 246L341 350L358 467Q349 468 345 476T342 497Q343 507 364 516H365L367 532Q369 545 378 550T401 556Q413 556 419 551T424 538Q479 555 520 555Q576 555 611 528ZM522 356T558 377T594 443Q594
473 570 490T503 507Q463 507 415 488Q401 406 397 367Q416 356 468 356Q522 356 558 377Z" />
<glyph unicode="&#xaf;" glyph-name="overscore" horiz-adv-x="383" d="M158 609Q130 609 108 617Q90 625 90 642Q90 660 103 670T133 677Q162 670 201 670Q222 670 270 674Q318 678 347 678Q359 678 383 676Q399 674 408 674Q419 673 426 666T433 648Q433 632
421 622T394 614Q364 618 342 618Q312 618 268 614Q226 610 202 610L158 609Z" />
<glyph unicode="&#xb0;" glyph-name="degree" horiz-adv-x="385" d="M187 562T154 593T120 675Q120 724 145 765T213 829T302 853Q361 853 395 819T430 735Q430 690 404 650T336 586T247 562Q187 562 154 593ZM304 614T338 646T373 725Q373 756 353 778T289 800Q256
800 230 782T190 737T176 684Q176 651 199 633T256 614Q304 614 338 646Z" />
<glyph unicode="&#xb1;" glyph-name="plusminus" horiz-adv-x="540" d="M507 393T507 370Q507 351 494 342T458 332Q375 332 319 333L299 219Q297 204 287 196T260 187Q234 187 234 210Q234 216 235 219L255 334L104 335Q73 335 73 357Q73 376 85 386T119 397L265
395L285 508Q290 538 323 538Q335 538 343 530T349 511L342 468L329 394L468 393Q507 393 507 370ZM419 117T429 111T439 92Q439 55 385 55L75 52Q42 52 42 73Q42 93 53 103T91 114L400 117Q419 117 429 111Z" />
<glyph unicode="&#xb2;" glyph-name="uni00B2" horiz-adv-x="378" d="M359 427T367 420T375 401Q375 385 365 375T337 365L298 366Q264 369 209 369Q184 369 140 367L83 366Q68 366 61 373T57 393Q75 444 123 492T253 591Q355 656 355 730Q355 761 336 779T282
797Q248 797 221 772T188 710Q184 684 148 684Q119 684 119 709Q119 746 142 780T202 835T282 856Q325 856 358 839T409 793T428 730Q428 687 408 653T357 593T281 539Q221 500 193 478T147 428Q171 429 219 429L294 428Q314 427 345 427Q359 427 367 420Z" />
<glyph unicode="&#xb3;" glyph-name="uni00B3" horiz-adv-x="424" d="M413 597T427 573T442 519Q442 480 420 445T355 387T248 364Q174 364 127 396T80 492Q80 509 83 528Q87 548 96 557T124 567Q153 567 153 542Q153 534 152 525T151 505Q151 469 172 446T252
423Q305 423 339 448T373 519Q373 552 349 565T286 580Q271 581 266 587T262 607Q265 624 273 631T295 638Q346 641 373 666T401 734Q401 763 382 780T333 797Q290 797 260 768T232 698Q233 687 222 679T192 671Q176 671 169 678T161 703Q161 744 185 779T248 835T333
856Q371 856 403 839T453 794T472 734Q472 693 450 660T389 610Q413 597 427 573Z" />
<glyph unicode="&#xb4;" glyph-name="acute" horiz-adv-x="376" d="M185 562T179 568T172 583Q172 599 187 614L293 720Q306 733 315 738T335 743Q347 743 354 736T362 718Q362 707 356 697T335 673L230 579Q220 569 212 566T195 562Q185 562 179 568Z" />
<glyph unicode="&#xb6;" glyph-name="paragraph" horiz-adv-x="600" d="M266 -30T266 -12L315 277Q223 279 164 328T104 462Q104 548 151 612T278 711T455 746Q525 746 542 744Q561 742 570 736T579 714Q579 706 578 702L455 2Q451 -17 445 -23T422 -30Q399 -30
399 -13L517 679Q519 690 513 692T486 695Q459 695 450 692T440 677L321 -5Q315 -30 288 -30Q266 -30 266 -12Z" />
<glyph unicode="&#xb7;" glyph-name="middot" horiz-adv-x="436" d="M193 269T175 287T156 334Q156 376 182 402T252 428Q282 428 300 410T318 362Q318 320 292 295T224 269Q193 269 175 287Z" />
<glyph unicode="&#xb8;" glyph-name="cedilla" horiz-adv-x="376" d="M48 -223T23 -219T-17 -209Q-33 -203 -33 -184Q-33 -170 -23 -160T1 -150Q5 -151 28 -157T69 -163Q105 -163 122 -158T140 -132Q140 -117 129 -112T98 -104T72 -99Q60 -98 53 -92T46 -77Q46
-71 49 -65L124 26Q137 43 150 43Q164 43 175 37T187 20Q187 15 179 3L133 -54Q166 -62 186 -82T206 -136Q206 -180 169 -201T67 -223Q48 -223 23 -219Z" />
<glyph unicode="&#xb9;" glyph-name="uni00B9" horiz-adv-x="285" d="M286 850T296 840T303 812L231 397Q229 383 218 375T189 367Q175 367 168 373T160 388Q160 391 162 397L226 765Q211 747 194 729T155 690Q144 680 130 680Q120 680 113 687T105 704Q105 710
111 719T126 736L160 772Q184 796 222 837Q236 850 267 850Q286 850 296 840Z" />
<glyph unicode="&#xba;" glyph-name="ordmasculine" horiz-adv-x="353" d="M176 467T142 494T108 577Q108 616 126 649T177 701T255 721Q303 721 337 689T371 608Q371 541 333 504T223 467Q176 467 142 494ZM267 506T295 532T323 608Q323 642 304 662T255 682Q209
682 181 652T153 577Q153 545 174 526T223 506Q267 506 295 532Z" />
<glyph unicode="&#xbb;" glyph-name="guillemotright" horiz-adv-x="569" d="M68 195T63 201T57 217Q57 233 64 241T89 255Q133 267 177 292T250 342T279 378Q279 388 259 409T208 451T142 483Q130 486 124 493T117 509Q117 522 127 532T150 543Q179 543 225 515T306
447T341 378Q341 348 291 305T176 228T78 195Q68 195 63 201ZM257 190T250 196T243 213Q243 227 253 237T282 250Q321 257 365 282T441 336T473 373Q473 382 452 404T398 447T335 477Q322 481 316 489T309 507Q309 519 318 527T340 536Q371 536 417 509T498 443T532
373Q532 341 483 298T369 222T269 190Q257 190 250 196Z" />
<glyph unicode="&#xbc;" glyph-name="onequarter" horiz-adv-x="852" d="M106 597T99 604T91 621Q91 627 97 636T112 653L146 689Q170 713 208 754Q222 767 253 767Q272 767 282 757T289 729L217 314Q215 300 204 292T175 284Q161 284 154 290T146 305Q146 308
148 314L212 682Q197 664 180 646T141 607Q130 597 116 597Q106 597 99 604ZM704 719T697 711L165 20Q149 0 127 0Q114 0 106 6T98 23Q98 37 111 53L640 742Q657 765 681 765Q694 765 702 757T708 735Q704 719 697 711ZM791 199Q800 199 805 194T810 178Q810 161
804 152T778 139Q771 138 723 133L700 26Q698 14 687 6T659 -3Q642 -3 636 6T631 30L653 131Q620 130 550 130Q488 130 436 143Q413 149 413 165Q413 176 424 192Q491 290 547 362T661 486Q671 494 685 494Q695 494 703 486T711 467Q711 460 707 453T690 434Q639
386 588 322T504 204Q502 200 502 198Q502 193 512 192Q535 187 602 187Q624 187 666 189L698 335Q706 365 737 365Q755 365 762 356T767 334L736 194Q753 195 787 199H791Z" />
<glyph unicode="&#xbd;" glyph-name="onehalf" horiz-adv-x="864" d="M105 596T98 603T90 620Q90 626 96 635T111 652L145 688Q169 712 207 753Q221 766 252 766Q271 766 281 756T288 728L216 313Q214 299 203 291T174 283Q160 283 153 289T145 304Q145 307 147
313L211 681Q196 663 179 645T140 606Q129 596 115 596Q105 596 98 603ZM703 719T696 711L164 20Q148 0 126 0Q113 0 105 6T97 23Q97 37 110 53L639 742Q656 765 680 765Q693 765 702 757T707 735Q703 719 696 711ZM780 60T788 53T796 34Q796 18 786 8T758 -2L719
-1Q685 2 630 2Q605 2 561 0L504 -1Q489 -1 482 6T478 26Q496 77 544 125T674 224Q776 289 776 363Q776 394 757 412T703 430Q669 430 642 405T609 343Q605 317 569 317Q540 317 540 342Q540 379 563 413T623 468T703 489Q746 489 779 472T830 426T849 363Q849
320 829 286T778 226T702 172Q642 133 614 111T568 61Q592 62 640 62L715 61Q735 60 766 60Q780 60 788 53Z" />
<glyph unicode="&#xbe;" glyph-name="threequarters" horiz-adv-x="974" d="M426 390T404 355T339 297T232 274Q158 274 111 306T64 402Q64 419 67 438Q71 458 80 467T108 477Q137 477 137 452Q137 444 136 435T135 415Q135 379 156 356T236 333Q289 333 323 358T357
429Q357 462 333 475T270 490Q255 491 250 497T246 517Q249 534 257 541T279 548Q330 551 357 576T385 644Q385 673 366 690T317 707Q274 707 244 678T216 608Q217 597 206 589T176 581Q160 581 153 588T145 613Q145 654 169 689T232 745T317 766Q355 766 387 749T437
704T456 644Q456 603 434 570T373 520Q397 507 411 483T426 429Q426 390 404 355ZM845 720T837 711L306 20Q290 0 268 0Q255 0 247 6T239 23Q239 37 252 53L781 742Q798 765 821 765Q835 765 843 757T849 735Q845 720 837 711ZM912 192Q921 192 926 187T931 171Q931
154 925 145T899 132Q892 131 844 126L821 19Q819 7 808 -1T780 -10Q763 -10 757 -1T752 23L774 124Q741 123 671 123Q609 123 557 136Q534 142 534 158Q534 169 545 185Q612 283 668 355T782 479Q792 487 806 487Q816 487 824 479T832 460Q832 453 828 446T811
427Q760 379 709 315T625 197Q623 193 623 191Q623 186 633 185Q655 180 723 180Q745 180 787 182L819 328Q827 358 858 358Q876 358 883 349T888 327L857 187Q874 188 908 192H912Z" />
<glyph unicode="&#xbf;" glyph-name="questiondown" horiz-adv-x="527" d="M283 474T270 487T257 519Q257 543 276 562T320 581Q341 581 354 569T367 536Q367 513 347 494T302 474Q283 474 270 487ZM151 -125T111 -103T50 -44T28 39Q28 86 46 123T91 188T160 252Q210
294 233 322T257 387Q257 403 268 412T294 422Q305 422 311 415T317 397Q317 348 287 308T198 213Q142 160 115 125T88 46Q88 -5 119 -35T206 -66Q285 -66 331 -29T377 75Q377 101 363 118T323 135Q294 135 294 159Q294 175 305 184T334 194Q379 194 408 159T437
75Q437 15 407 -30T325 -100T206 -125Q151 -125 111 -103Z" />
<glyph unicode="&#xc0;" glyph-name="Agrave" horiz-adv-x="692" d="M603 195T593 181T564 167H557L573 34L574 25Q574 9 559 0T526 -10Q513 -10 504 -4T493 12L475 167L192 169Q144 73 114 16Q102 -9 72 -9Q53 -9 43 1T36 23Q36 27 40 35L209 369Q260 467 326
598Q359 662 378 686T428 711Q456 711 473 687T499 608Q524 437 547 245H572Q587 245 595 237T603 214Q603 195 593 181ZM467 246L433 534Q428 574 424 592T415 610Q410 610 401 594T370 535L322 436Q277 341 231 249L467 246ZM483 757T477 760T464 773L400 859Q389
876 389 886Q389 901 399 911T423 922Q440 922 456 898L514 813Q524 800 524 789Q524 776 514 767T491 757Q483 757 477 760Z" />
<glyph unicode="&#xc1;" glyph-name="Aacute" horiz-adv-x="692" d="M603 195T593 181T564 167H557L573 34L574 25Q574 9 559 0T526 -10Q513 -10 504 -4T493 12L475 167L192 169Q144 73 114 16Q102 -9 72 -9Q53 -9 43 1T36 23Q36 27 40 35L209 369Q260 467 326
598Q359 662 378 686T428 711Q456 711 473 687T499 608Q524 437 547 245H572Q587 245 595 237T603 214Q603 195 593 181ZM467 246L433 534Q428 574 424 592T415 610Q410 610 401 594T370 535L322 436Q277 341 231 249L467 246ZM389 752T382 758T375 775Q375 783
381 792T397 811L489 892Q504 906 513 911T532 917Q543 917 550 910T558 891Q558 870 533 850L434 769Q414 752 399 752Q389 752 382 758Z" />
<glyph unicode="&#xc2;" glyph-name="Acircumflex" horiz-adv-x="692" d="M603 195T593 181T564 167H557L573 34L574 25Q574 9 559 0T526 -10Q513 -10 504 -4T493 12L475 167L192 169Q144 73 114 16Q102 -9 72 -9Q53 -9 43 1T36 23Q36 27 40 35L209 369Q260 467
326 598Q359 662 378 686T428 711Q456 711 473 687T499 608Q524 437 547 245H572Q587 245 595 237T603 214Q603 195 593 181ZM467 246L433 534Q428 574 424 592T415 610Q410 610 401 594T370 535L322 436Q277 341 231 249L467 246ZM544 763T537 776Q480 878 463
878Q455 878 430 857T355 788Q335 768 320 768Q310 768 303 775T295 794Q295 807 309 820Q323 830 341 849Q389 893 419 916T470 940Q496 940 516 917T567 845L588 811Q594 803 594 796Q594 783 584 773T560 763Q544 763 537 776Z" />
<glyph unicode="&#xc3;" glyph-name="Atilde" horiz-adv-x="692" d="M603 195T593 181T564 167H557L573 34L574 25Q574 9 559 0T526 -10Q513 -10 504 -4T493 12L475 167L192 169Q144 73 114 16Q102 -9 72 -9Q53 -9 43 1T36 23Q36 27 40 35L209 369Q260 467 326
598Q359 662 378 686T428 711Q456 711 473 687T499 608Q524 437 547 245H572Q587 245 595 237T603 214Q603 195 593 181ZM467 246L433 534Q428 574 424 592T415 610Q410 610 401 594T370 535L322 436Q277 341 231 249L467 246ZM297 766T291 772T285 791Q285 804
297 816Q326 845 347 857T394 869Q440 869 478 847Q484 844 495 838T514 828T529 825Q542 825 561 842Q577 857 589 857Q599 857 606 849T613 830Q613 816 602 805Q577 785 557 776T517 766Q494 766 462 784L442 794Q437 796 419 804T388 813Q378 813 369 806T341
782Q322 766 308 766Q297 766 291 772Z" />
<glyph unicode="&#xc4;" glyph-name="Adieresis" horiz-adv-x="692" d="M603 195T593 181T564 167H557L573 34L574 25Q574 9 559 0T526 -10Q513 -10 504 -4T493 12L475 167L192 169Q144 73 114 16Q102 -9 72 -9Q53 -9 43 1T36 23Q36 27 40 35L209 369Q260 467
326 598Q359 662 378 686T428 711Q456 711 473 687T499 608Q524 437 547 245H572Q587 245 595 237T603 214Q603 195 593 181ZM467 246L433 534Q428 574 424 592T415 610Q410 610 401 594T370 535L322 436Q277 341 231 249L467 246ZM303 776T291 788T278 821Q278
847 297 865T342 883Q362 883 375 871T389 839Q389 814 369 795T324 776Q303 776 291 788ZM543 776T531 788T518 821Q518 847 537 865T582 883Q602 883 615 871T628 840Q628 815 609 796T564 776Q543 776 531 788Z" />
<glyph unicode="&#xc5;" glyph-name="Aring" horiz-adv-x="692" d="M603 195T593 181T564 167H557L573 34L574 25Q574 9 559 0T526 -10Q513 -10 504 -4T493 12L475 167L192 169Q144 73 114 16Q102 -9 72 -9Q53 -9 43 1T36 23Q36 27 40 35L209 369Q260 467 326
598Q359 662 378 686T428 711Q456 711 473 687T499 608Q524 437 547 245H572Q587 245 595 237T603 214Q603 195 593 181ZM467 246L433 534Q428 574 424 592T415 610Q410 610 401 594T370 535L322 436Q277 341 231 249L467 246ZM401 737T374 764T346 830Q346 863
363 891T410 935T475 952Q514 952 540 924T566 859Q566 808 530 773T441 737Q401 737 374 764ZM475 788T495 807T516 855Q516 874 503 888T467 902Q439 902 419 882T398 835Q398 815 411 802T447 788Q475 788 495 807Z" />
<glyph unicode="&#xc6;" glyph-name="AE" horiz-adv-x="913" d="M951 686T951 667Q951 661 950 658Q946 637 936 630T915 623L883 624Q815 628 749 628Q666 628 625 625Q615 539 599 455L588 394L695 392Q789 390 806 389Q813 388 816 381T818 361Q815 347 806
340T777 333L701 335L636 337H576Q562 268 539 178L513 71Q623 61 687 61Q722 61 742 62T804 70Q816 72 826 66T836 44Q836 26 825 16T798 1Q774 -6 700 -6Q668 -6 594 -4Q462 -1 433 -1Q401 -1 391 6T383 31Q387 51 398 59T431 67Q446 118 463 189L227 191L115
21Q108 11 102 6T84 1Q64 1 48 13T40 38Q146 203 233 332T412 574T549 690Q551 691 556 691L648 693Q714 696 752 696Q798 696 933 687Q951 686 951 667ZM476 245Q503 367 529 512Q541 581 544 604Q475 558 266 248L476 245Z" />
<glyph unicode="&#xc7;" glyph-name="Ccedilla" horiz-adv-x="714" d="M722 708T722 680Q722 674 721 671L700 559Q692 514 652 514Q632 514 622 530Q601 566 584 588T538 626T465 642Q382 642 307 588T185 449T138 276Q138 207 168 160T248 91T357 68Q441 68
510 113T603 245Q607 262 616 272T648 283Q667 283 676 276T685 255Q685 251 683 239Q670 173 626 118T513 30T357 -3H349L308 -54Q341 -62 361 -82T381 -136Q381 -180 344 -201T242 -223Q223 -223 198 -219T158 -209Q142 -203 142 -184Q142 -170 152 -160T176
-150Q180 -151 203 -157T244 -163Q280 -163 297 -158T315 -132Q315 -117 304 -112T273 -104T247 -99Q235 -98 228 -92T221 -77Q221 -71 224 -65L281 5Q184 25 122 94T60 274Q60 382 116 484T266 649T465 713Q527 713 570 690T638 625L647 674Q649 689 659 698T689
708Q722 708 722 680Z" />
<glyph unicode="&#xc8;" glyph-name="Egrave" horiz-adv-x="573" d="M595 686T602 682T610 664Q610 644 598 632T570 621Q472 629 388 629Q324 629 252 625Q233 492 217 404L284 403L394 400L453 399Q477 399 477 375Q477 356 467 343T441 329L388 330Q343 333
270 333Q228 333 204 334Q190 260 176 206T143 86Q207 81 297 81Q351 81 383 83T461 90Q498 94 498 64Q498 46 489 35T461 20Q423 12 276 12Q144 12 40 24Q18 27 18 49Q18 67 27 79T50 92H67Q85 146 98 201T127 335H115Q85 335 85 361Q85 379 95 392T123 405H139Q148
456 149 463Q171 582 177 622H170Q154 622 154 647Q154 673 167 681T201 692Q259 698 374 698Q519 698 580 689Q595 686 602 682ZM435 757T429 760T416 773L352 859Q341 876 341 886Q341 901 351 911T375 922Q392 922 408 898L466 813Q476 800 476 789Q476 776
466 767T443 757Q435 757 429 760Z" />
<glyph unicode="&#xc9;" glyph-name="Eacute" horiz-adv-x="573" d="M595 686T602 682T610 664Q610 644 598 632T570 621Q472 629 388 629Q324 629 252 625Q233 492 217 404L284 403L394 400L453 399Q477 399 477 375Q477 356 467 343T441 329L388 330Q343 333
270 333Q228 333 204 334Q190 260 176 206T143 86Q207 81 297 81Q351 81 383 83T461 90Q498 94 498 64Q498 46 489 35T461 20Q423 12 276 12Q144 12 40 24Q18 27 18 49Q18 67 27 79T50 92H67Q85 146 98 201T127 335H115Q85 335 85 361Q85 379 95 392T123 405H139Q148
456 149 463Q171 582 177 622H170Q154 622 154 647Q154 673 167 681T201 692Q259 698 374 698Q519 698 580 689Q595 686 602 682ZM341 752T334 758T327 775Q327 783 333 792T349 811L441 892Q456 906 465 911T484 917Q495 917 502 910T510 891Q510 870 485 850L386
769Q366 752 351 752Q341 752 334 758Z" />
<glyph unicode="&#xca;" glyph-name="Ecircumflex" horiz-adv-x="573" d="M595 686T602 682T610 664Q610 644 598 632T570 621Q472 629 388 629Q324 629 252 625Q233 492 217 404L284 403L394 400L453 399Q477 399 477 375Q477 356 467 343T441 329L388 330Q343
333 270 333Q228 333 204 334Q190 260 176 206T143 86Q207 81 297 81Q351 81 383 83T461 90Q498 94 498 64Q498 46 489 35T461 20Q423 12 276 12Q144 12 40 24Q18 27 18 49Q18 67 27 79T50 92H67Q85 146 98 201T127 335H115Q85 335 85 361Q85 379 95 392T123 405H139Q148
456 149 463Q171 582 177 622H170Q154 622 154 647Q154 673 167 681T201 692Q259 698 374 698Q519 698 580 689Q595 686 602 682ZM496 763T489 776Q432 878 415 878Q407 878 382 857T307 788Q287 768 272 768Q262 768 255 775T247 794Q247 807 261 820Q275 830
293 849Q341 893 371 916T422 940Q448 940 468 917T519 845L540 811Q546 803 546 796Q546 783 536 773T512 763Q496 763 489 776Z" />
<glyph unicode="&#xcb;" glyph-name="Edieresis" horiz-adv-x="573" d="M595 686T602 682T610 664Q610 644 598 632T570 621Q472 629 388 629Q324 629 252 625Q233 492 217 404L284 403L394 400L453 399Q477 399 477 375Q477 356 467 343T441 329L388 330Q343
333 270 333Q228 333 204 334Q190 260 176 206T143 86Q207 81 297 81Q351 81 383 83T461 90Q498 94 498 64Q498 46 489 35T461 20Q423 12 276 12Q144 12 40 24Q18 27 18 49Q18 67 27 79T50 92H67Q85 146 98 201T127 335H115Q85 335 85 361Q85 379 95 392T123 405H139Q148
456 149 463Q171 582 177 622H170Q154 622 154 647Q154 673 167 681T201 692Q259 698 374 698Q519 698 580 689Q595 686 602 682ZM255 776T243 788T230 821Q230 847 249 865T294 883Q314 883 327 871T341 839Q341 814 321 795T276 776Q255 776 243 788ZM495 776T483
788T470 821Q470 847 489 865T534 883Q554 883 567 871T580 840Q580 815 561 796T516 776Q495 776 483 788Z" />
<glyph unicode="&#xcc;" glyph-name="Igrave" horiz-adv-x="438" d="M483 701T483 677Q483 657 471 645T441 634Q411 636 350 638Q321 476 294 346T231 76L343 75Q359 75 365 69T372 48Q372 28 361 16T330 4L27 8Q2 9 2 36Q2 56 14 67T42 79L156 77Q226 376 272
637L202 633Q142 629 127 629Q118 629 112 636T106 658Q106 677 117 687T145 700Q199 709 304 709Q398 709 457 703Q483 701 483 677ZM359 757T353 760T340 773L276 859Q265 876 265 886Q265 901 275 911T299 922Q316 922 332 898L390 813Q400 800 400 789Q400
776 390 767T367 757Q359 757 353 760Z" />
<glyph unicode="&#xcd;" glyph-name="Iacute" horiz-adv-x="438" d="M483 701T483 677Q483 657 471 645T441 634Q411 636 350 638Q321 476 294 346T231 76L343 75Q359 75 365 69T372 48Q372 28 361 16T330 4L27 8Q2 9 2 36Q2 56 14 67T42 79L156 77Q226 376 272
637L202 633Q142 629 127 629Q118 629 112 636T106 658Q106 677 117 687T145 700Q199 709 304 709Q398 709 457 703Q483 701 483 677ZM265 752T258 758T251 775Q251 783 257 792T273 811L365 892Q380 906 389 911T408 917Q419 917 426 910T434 891Q434 870 409
850L310 769Q290 752 275 752Q265 752 258 758Z" />
<glyph unicode="&#xce;" glyph-name="Icircumflex" horiz-adv-x="438" d="M483 701T483 677Q483 657 471 645T441 634Q411 636 350 638Q321 476 294 346T231 76L343 75Q359 75 365 69T372 48Q372 28 361 16T330 4L27 8Q2 9 2 36Q2 56 14 67T42 79L156 77Q226 376
272 637L202 633Q142 629 127 629Q118 629 112 636T106 658Q106 677 117 687T145 700Q199 709 304 709Q398 709 457 703Q483 701 483 677ZM420 763T413 776Q356 878 339 878Q331 878 306 857T231 788Q211 768 196 768Q186 768 179 775T171 794Q171 807 185 820Q199
830 217 849Q265 893 295 916T346 940Q372 940 392 917T443 845L464 811Q470 803 470 796Q470 783 460 773T436 763Q420 763 413 776Z" />
<glyph unicode="&#xcf;" glyph-name="Idieresis" horiz-adv-x="438" d="M483 701T483 677Q483 657 471 645T441 634Q411 636 350 638Q321 476 294 346T231 76L343 75Q359 75 365 69T372 48Q372 28 361 16T330 4L27 8Q2 9 2 36Q2 56 14 67T42 79L156 77Q226 376
272 637L202 633Q142 629 127 629Q118 629 112 636T106 658Q106 677 117 687T145 700Q199 709 304 709Q398 709 457 703Q483 701 483 677ZM179 776T167 788T154 821Q154 847 173 865T218 883Q238 883 251 871T265 839Q265 814 245 795T200 776Q179 776 167 788ZM419
776T407 788T394 821Q394 847 413 865T458 883Q478 883 491 871T504 840Q504 815 485 796T440 776Q419 776 407 788Z" />
<glyph unicode="&#xd0;" glyph-name="Eth" horiz-adv-x="726" d="M492 688T593 614T695 398Q695 281 627 192T441 55T183 7H112Q75 7 75 33Q75 75 120 75H145L182 327L107 328Q84 328 72 336T60 358Q60 379 76 391T121 403L193 401L227 631Q185 634 185 662Q185
683 199 691T245 700Q256 714 281 714Q309 714 315 698Q492 688 593 614ZM338 82T425 124T562 239T612 410Q612 603 311 628L277 399L388 397Q407 396 418 388T429 365Q429 346 415 335T375 323L266 325L229 76Q338 82 425 124Z" />
<glyph unicode="&#xd1;" glyph-name="Ntilde" horiz-adv-x="738" d="M720 713T728 701T733 673Q707 516 677 360L665 296Q645 184 627 123T590 37T546 12Q516 12 489 43T431 135T344 319Q291 437 264 495T216 588Q201 508 185 403L176 345Q143 137 123 42Q121
30 109 20T80 10Q63 10 53 19T45 42L53 85L99 346Q111 411 127 516Q135 556 149 643Q155 674 167 690T204 706Q232 706 254 683T299 614T367 470Q376 449 384 432T398 400Q485 208 544 107Q553 136 562 178T574 237Q580 270 589 309Q605 385 655 678Q658 695 670
704T700 713Q720 713 728 701ZM323 766T317 772T311 791Q311 804 323 816Q352 845 373 857T420 869Q466 869 504 847Q510 844 521 838T540 828T555 825Q568 825 587 842Q603 857 615 857Q625 857 632 849T639 830Q639 816 628 805Q603 785 583 776T543 766Q520
766 488 784L468 794Q463 796 445 804T414 813Q404 813 395 806T367 782Q348 766 334 766Q323 766 317 772Z" />
<glyph unicode="&#xd2;" glyph-name="Ograve" horiz-adv-x="792" d="M278 8T211 40T105 134T65 282Q65 397 115 494T255 649T454 707Q544 707 614 668T723 560T763 404Q763 289 712 199T568 59T358 8Q278 8 211 40ZM456 79T529 121T643 238T685 404Q685 473 657
525T578 607T458 636Q369 636 297 587T184 457T143 285Q143 212 175 166T257 100T366 79Q456 79 529 121ZM528 757T522 760T509 773L445 859Q434 876 434 886Q434 901 444 911T468 922Q485 922 501 898L559 813Q569 800 569 789Q569 776 559 767T536 757Q528 757
522 760Z" />
<glyph unicode="&#xd3;" glyph-name="Oacute" horiz-adv-x="792" d="M278 8T211 40T105 134T65 282Q65 397 115 494T255 649T454 707Q544 707 614 668T723 560T763 404Q763 289 712 199T568 59T358 8Q278 8 211 40ZM456 79T529 121T643 238T685 404Q685 473 657
525T578 607T458 636Q369 636 297 587T184 457T143 285Q143 212 175 166T257 100T366 79Q456 79 529 121ZM434 752T427 758T420 775Q420 783 426 792T442 811L534 892Q549 906 558 911T577 917Q588 917 595 910T603 891Q603 870 578 850L479 769Q459 752 444 752Q434
752 427 758Z" />
<glyph unicode="&#xd4;" glyph-name="Ocircumflex" horiz-adv-x="792" d="M278 8T211 40T105 134T65 282Q65 397 115 494T255 649T454 707Q544 707 614 668T723 560T763 404Q763 289 712 199T568 59T358 8Q278 8 211 40ZM456 79T529 121T643 238T685 404Q685 473
657 525T578 607T458 636Q369 636 297 587T184 457T143 285Q143 212 175 166T257 100T366 79Q456 79 529 121ZM589 763T582 776Q525 878 508 878Q500 878 475 857T400 788Q380 768 365 768Q355 768 348 775T340 794Q340 807 354 820Q368 830 386 849Q434 893 464
916T515 940Q541 940 561 917T612 845L633 811Q639 803 639 796Q639 783 629 773T605 763Q589 763 582 776Z" />
<glyph unicode="&#xd5;" glyph-name="Otilde" horiz-adv-x="792" d="M278 8T211 40T105 134T65 282Q65 397 115 494T255 649T454 707Q544 707 614 668T723 560T763 404Q763 289 712 199T568 59T358 8Q278 8 211 40ZM456 79T529 121T643 238T685 404Q685 473 657
525T578 607T458 636Q369 636 297 587T184 457T143 285Q143 212 175 166T257 100T366 79Q456 79 529 121ZM342 766T336 772T330 791Q330 804 342 816Q371 845 392 857T439 869Q485 869 523 847Q529 844 540 838T559 828T574 825Q587 825 606 842Q622 857 634 857Q644
857 651 849T658 830Q658 816 647 805Q622 785 602 776T562 766Q539 766 507 784L487 794Q482 796 464 804T433 813Q423 813 414 806T386 782Q367 766 353 766Q342 766 336 772Z" />
<glyph unicode="&#xd6;" glyph-name="Odieresis" horiz-adv-x="792" d="M278 8T211 40T105 134T65 282Q65 397 115 494T255 649T454 707Q544 707 614 668T723 560T763 404Q763 289 712 199T568 59T358 8Q278 8 211 40ZM456 79T529 121T643 238T685 404Q685 473
657 525T578 607T458 636Q369 636 297 587T184 457T143 285Q143 212 175 166T257 100T366 79Q456 79 529 121ZM348 776T336 788T323 821Q323 847 342 865T387 883Q407 883 420 871T434 839Q434 814 414 795T369 776Q348 776 336 788ZM588 776T576 788T563 821Q563
847 582 865T627 883Q647 883 660 871T673 840Q673 815 654 796T609 776Q588 776 576 788Z" />
<glyph unicode="&#xd7;" glyph-name="multiply" horiz-adv-x="540" d="M429 478T437 471T446 453Q446 445 444 439T434 426L311 314L366 249L415 191Q422 182 419 172Q417 161 406 152T382 143Q372 143 367 147T352 161L263 270Q182 197 136 157Q119 143 104 143Q93
143 84 151T75 168Q75 180 85 189L225 315L128 428Q122 436 121 440T121 451Q123 462 134 471T161 481Q171 481 177 477T190 463Q219 425 272 359Q310 393 382 461Q392 470 398 474T414 478Q429 478 437 471Z" />
<glyph unicode="&#xd8;" glyph-name="Oslash" horiz-adv-x="792" d="M789 742T796 733T802 712Q798 699 786 688L696 600Q763 519 763 404Q763 289 712 199T568 59T358 8Q301 8 250 24T159 73L81 -4Q62 -23 46 -23Q34 -23 26 -15T19 5Q20 10 23 15T32 26L120 112Q65
183 65 282Q65 397 115 494T255 649T454 707Q514 707 565 690T657 639L742 722Q762 742 777 742Q789 742 796 733ZM143 214T175 166L605 588Q546 636 458 636Q369 636 297 587T184 457T143 285Q143 214 175 166ZM685 487T643 548L213 126Q272 79 366 79Q456 79
529 121T643 238T685 404Q685 487 643 548Z" />
<glyph unicode="&#xd9;" glyph-name="Ugrave" horiz-adv-x="667" d="M646 708T655 700T664 679Q664 674 663 671Q640 544 620 416Q603 304 556 31Q550 -2 513 -2Q480 -2 480 26Q480 34 481 38L494 114Q459 64 402 33T273 2Q205 2 159 30T91 104T69 199Q69 232
85 318T138 585L155 669Q161 702 198 702Q214 702 223 696T232 676Q232 671 231 668Q187 464 168 358T149 199Q149 141 180 107T273 73Q331 73 385 104T475 183T522 282Q536 355 555 469T588 673Q593 708 629 708Q646 708 655 700ZM466 757T460 760T447 773L383
859Q372 876 372 886Q372 901 382 911T406 922Q423 922 439 898L497 813Q507 800 507 789Q507 776 497 767T474 757Q466 757 460 760Z" />
<glyph unicode="&#xda;" glyph-name="Uacute" horiz-adv-x="667" d="M646 708T655 700T664 679Q664 674 663 671Q640 544 620 416Q603 304 556 31Q550 -2 513 -2Q480 -2 480 26Q480 34 481 38L494 114Q459 64 402 33T273 2Q205 2 159 30T91 104T69 199Q69 232
85 318T138 585L155 669Q161 702 198 702Q214 702 223 696T232 676Q232 671 231 668Q187 464 168 358T149 199Q149 141 180 107T273 73Q331 73 385 104T475 183T522 282Q536 355 555 469T588 673Q593 708 629 708Q646 708 655 700ZM372 752T365 758T358 775Q358
783 364 792T380 811L472 892Q487 906 496 911T515 917Q526 917 533 910T541 891Q541 870 516 850L417 769Q397 752 382 752Q372 752 365 758Z" />
<glyph unicode="&#xdb;" glyph-name="Ucircumflex" horiz-adv-x="667" d="M646 708T655 700T664 679Q664 674 663 671Q640 544 620 416Q603 304 556 31Q550 -2 513 -2Q480 -2 480 26Q480 34 481 38L494 114Q459 64 402 33T273 2Q205 2 159 30T91 104T69 199Q69
232 85 318T138 585L155 669Q161 702 198 702Q214 702 223 696T232 676Q232 671 231 668Q187 464 168 358T149 199Q149 141 180 107T273 73Q331 73 385 104T475 183T522 282Q536 355 555 469T588 673Q593 708 629 708Q646 708 655 700ZM527 763T520 776Q463 878
446 878Q438 878 413 857T338 788Q318 768 303 768Q293 768 286 775T278 794Q278 807 292 820Q306 830 324 849Q372 893 402 916T453 940Q479 940 499 917T550 845L571 811Q577 803 577 796Q577 783 567 773T543 763Q527 763 520 776Z" />
<glyph unicode="&#xdc;" glyph-name="Udieresis" horiz-adv-x="667" d="M646 708T655 700T664 679Q664 674 663 671Q640 544 620 416Q603 304 556 31Q550 -2 513 -2Q480 -2 480 26Q480 34 481 38L494 114Q459 64 402 33T273 2Q205 2 159 30T91 104T69 199Q69 232
85 318T138 585L155 669Q161 702 198 702Q214 702 223 696T232 676Q232 671 231 668Q187 464 168 358T149 199Q149 141 180 107T273 73Q331 73 385 104T475 183T522 282Q536 355 555 469T588 673Q593 708 629 708Q646 708 655 700ZM286 776T274 788T261 821Q261
847 280 865T325 883Q345 883 358 871T372 839Q372 814 352 795T307 776Q286 776 274 788ZM526 776T514 788T501 821Q501 847 520 865T565 883Q585 883 598 871T611 840Q611 815 592 796T547 776Q526 776 514 788Z" />
<glyph unicode="&#xdd;" glyph-name="Yacute" horiz-adv-x="655" d="M270 3T262 14T256 41L304 328Q258 345 206 459Q183 508 172 547T145 655Q144 658 144 665Q144 682 158 691T191 700Q218 700 226 665Q242 600 251 568T276 496Q291 456 312 423T351 390Q368
390 398 419T468 498Q499 538 524 576T583 669Q594 687 600 692T617 698Q634 698 647 690T660 668Q660 658 654 649Q587 531 529 457Q483 400 444 368T381 328L334 43Q326 3 289 3Q270 3 262 14ZM370 752T363 758T356 775Q356 783 362 792T378 811L470 892Q485
906 494 911T513 917Q524 917 531 910T539 891Q539 870 514 850L415 769Q395 752 380 752Q370 752 363 758Z" />
<glyph unicode="&#xde;" glyph-name="Thorn" horiz-adv-x="631" d="M466 646T519 621T603 550T635 443Q635 374 597 319T491 232T338 201Q263 201 198 225L159 29Q156 14 143 4T112 -7Q93 -7 82 1T73 25Q91 124 113 228Q119 260 127 301T138 359Q141 381 154 451L166
514L150 505Q139 498 127 498Q115 498 107 509T99 530Q99 547 120 560Q143 575 180 593Q196 676 205 739Q207 755 220 765T254 775Q272 775 281 766T288 739L270 625Q344 646 404 646Q466 646 519 621ZM401 271T448 292T522 351T549 441Q549 501 503 538T387 575Q332
575 258 553Q245 476 237 430L225 371L210 296Q282 271 344 271Q401 271 448 292Z" />
<glyph unicode="&#xdf;" glyph-name="germandbls" horiz-adv-x="634" d="M300 -3T266 3T206 23Q193 30 193 45Q193 58 204 71T227 85Q231 85 237 82Q283 59 333 59Q401 59 441 85T481 163Q481 187 465 205T415 246Q378 272 359 294T339 348Q339 391 376 424T476
477Q486 494 492 515T499 554Q499 602 467 635T384 668Q306 668 258 609T184 420L112 47Q106 12 72 12Q54 12 47 21T42 47L111 421Q129 522 159 589T244 693T384 731Q440 731 483 706T550 640T574 554Q574 489 527 429Q474 418 443 394T411 348Q411 332 425 317T472
277Q513 245 535 220T557 163Q557 83 494 40T333 -3Q300 -3 266 3Z" />
<glyph unicode="&#xe0;" glyph-name="agrave" horiz-adv-x="623" d="M554 458T551 446T545 428Q539 414 529 377Q512 314 495 224T477 100Q477 83 483 75T505 65Q517 63 523 59T529 44Q529 26 520 14T494 2Q454 2 437 14T412 61Q357 -9 249 -9Q182 -9 138 19T73
93T52 189Q52 272 86 341T183 452T326 493Q376 493 413 472T466 417L476 450Q481 467 490 477T517 487Q534 487 544 481T554 464Q554 458 551 446ZM434 300T434 325Q434 380 400 405T326 430Q271 430 227 395T157 304T131 189Q131 132 158 94T251 55Q310 55 354
85T409 173Q434 300 434 325ZM405 557T399 560T386 573L322 659Q311 676 311 686Q311 701 321 711T345 722Q362 722 378 698L436 613Q446 600 446 589Q446 576 436 567T413 557Q405 557 399 560Z" />
<glyph unicode="&#xe1;" glyph-name="aacute" horiz-adv-x="623" d="M554 458T551 446T545 428Q539 414 529 377Q512 314 495 224T477 100Q477 83 483 75T505 65Q517 63 523 59T529 44Q529 26 520 14T494 2Q454 2 437 14T412 61Q357 -9 249 -9Q182 -9 138 19T73
93T52 189Q52 272 86 341T183 452T326 493Q376 493 413 472T466 417L476 450Q481 467 490 477T517 487Q534 487 544 481T554 464Q554 458 551 446ZM434 300T434 325Q434 380 400 405T326 430Q271 430 227 395T157 304T131 189Q131 132 158 94T251 55Q310 55 354
85T409 173Q434 300 434 325ZM311 552T304 558T297 575Q297 583 303 592T319 611L411 692Q426 706 435 711T454 717Q465 717 472 710T480 691Q480 670 455 650L356 569Q336 552 321 552Q311 552 304 558Z" />
<glyph unicode="&#xe2;" glyph-name="acircumflex" horiz-adv-x="623" d="M554 458T551 446T545 428Q539 414 529 377Q512 314 495 224T477 100Q477 83 483 75T505 65Q517 63 523 59T529 44Q529 26 520 14T494 2Q454 2 437 14T412 61Q357 -9 249 -9Q182 -9 138
19T73 93T52 189Q52 272 86 341T183 452T326 493Q376 493 413 472T466 417L476 450Q481 467 490 477T517 487Q534 487 544 481T554 464Q554 458 551 446ZM434 300T434 325Q434 380 400 405T326 430Q271 430 227 395T157 304T131 189Q131 132 158 94T251 55Q310
55 354 85T409 173Q434 300 434 325ZM466 563T459 576Q402 678 385 678Q377 678 352 657T277 588Q257 568 242 568Q232 568 225 575T217 594Q217 607 231 620Q245 630 263 649Q311 693 341 716T392 740Q418 740 438 717T489 645L510 611Q516 603 516 596Q516 583
506 573T482 563Q466 563 459 576Z" />
<glyph unicode="&#xe3;" glyph-name="atilde" horiz-adv-x="623" d="M554 458T551 446T545 428Q539 414 529 377Q512 314 495 224T477 100Q477 83 483 75T505 65Q517 63 523 59T529 44Q529 26 520 14T494 2Q454 2 437 14T412 61Q357 -9 249 -9Q182 -9 138 19T73
93T52 189Q52 272 86 341T183 452T326 493Q376 493 413 472T466 417L476 450Q481 467 490 477T517 487Q534 487 544 481T554 464Q554 458 551 446ZM434 300T434 325Q434 380 400 405T326 430Q271 430 227 395T157 304T131 189Q131 132 158 94T251 55Q310 55 354
85T409 173Q434 300 434 325ZM219 566T213 572T207 591Q207 604 219 616Q248 645 269 657T316 669Q362 669 400 647Q406 644 417 638T436 628T451 625Q464 625 483 642Q499 657 511 657Q521 657 528 649T535 630Q535 616 524 605Q499 585 479 576T439 566Q416 566
384 584L364 594Q359 596 341 604T310 613Q300 613 291 606T263 582Q244 566 230 566Q219 566 213 572Z" />
<glyph unicode="&#xe4;" glyph-name="adieresis" horiz-adv-x="623" d="M554 458T551 446T545 428Q539 414 529 377Q512 314 495 224T477 100Q477 83 483 75T505 65Q517 63 523 59T529 44Q529 26 520 14T494 2Q454 2 437 14T412 61Q357 -9 249 -9Q182 -9 138 19T73
93T52 189Q52 272 86 341T183 452T326 493Q376 493 413 472T466 417L476 450Q481 467 490 477T517 487Q534 487 544 481T554 464Q554 458 551 446ZM434 300T434 325Q434 380 400 405T326 430Q271 430 227 395T157 304T131 189Q131 132 158 94T251 55Q310 55 354
85T409 173Q434 300 434 325ZM225 576T213 588T200 621Q200 647 219 665T264 683Q284 683 297 671T311 639Q311 614 291 595T246 576Q225 576 213 588ZM465 576T453 588T440 621Q440 647 459 665T504 683Q524 683 537 671T550 640Q550 615 531 596T486 576Q465
576 453 588Z" />
<glyph unicode="&#xe5;" glyph-name="aring" horiz-adv-x="623" d="M554 458T551 446T545 428Q539 414 529 377Q512 314 495 224T477 100Q477 83 483 75T505 65Q517 63 523 59T529 44Q529 26 520 14T494 2Q454 2 437 14T412 61Q357 -9 249 -9Q182 -9 138 19T73
93T52 189Q52 272 86 341T183 452T326 493Q376 493 413 472T466 417L476 450Q481 467 490 477T517 487Q534 487 544 481T554 464Q554 458 551 446ZM434 300T434 325Q434 380 400 405T326 430Q271 430 227 395T157 304T131 189Q131 132 158 94T251 55Q310 55 354
85T409 173Q434 300 434 325ZM323 537T296 564T268 630Q268 663 285 691T332 735T397 752Q436 752 462 724T488 659Q488 608 452 573T363 537Q323 537 296 564ZM397 588T417 607T438 655Q438 674 425 688T389 702Q361 702 341 682T320 635Q320 615 333 602T369
588Q397 588 417 607Z" />
<glyph unicode="&#xe6;" glyph-name="ae" horiz-adv-x="993" d="M787 514T836 488T914 420T942 331Q942 316 939 301Q933 271 920 261T878 250L504 241L502 226Q498 205 498 181Q498 113 534 83T652 52Q768 52 838 145Q848 158 864 158Q876 158 884 149T893 128Q893
113 880 96Q798 -10 652 -10Q571 -10 520 16T452 92Q426 44 371 17T239 -10Q135 -10 87 22T39 126Q39 209 93 250T261 294L441 298L443 312Q445 328 445 336Q445 385 412 416T315 447Q258 447 221 430T139 375Q129 366 116 366Q102 366 94 375T86 394Q86 408 104
424Q152 467 202 488T315 510Q383 510 434 476T496 389Q531 444 591 479T727 514Q787 514 836 488ZM681 453T638 433T562 377T517 300L866 309L868 319Q869 324 869 333Q869 362 852 389T803 435T727 453Q681 453 638 433ZM430 238L261 234Q185 232 149 205T112
126Q112 86 142 69T239 51Q308 51 358 80T418 164L430 238Z" />
<glyph unicode="&#xe7;" glyph-name="ccedilla" horiz-adv-x="588" d="M290 450T239 415T157 322T127 205Q127 143 166 104T275 64Q327 64 372 85T443 138T469 201Q469 211 479 218T504 225Q520 225 528 220T537 200Q537 148 504 105T418 35T305 2L259 -54Q292
-62 312 -82T332 -136Q332 -180 295 -201T193 -223Q174 -223 149 -219T109 -209Q93 -203 93 -184Q93 -170 103 -160T127 -150Q131 -151 154 -157T195 -163Q231 -163 248 -158T266 -132Q266 -117 255 -112T224 -104T198 -99Q186 -98 179 -92T172 -77Q172 -71 175
-65L232 4Q147 16 99 72T51 205Q51 288 90 359T198 471T350 513Q400 513 447 492T524 436T553 362Q553 329 514 329Q499 329 490 336T481 356Q481 378 465 400T418 436T350 450Q290 450 239 415Z" />
<glyph unicode="&#xe8;" glyph-name="egrave" horiz-adv-x="619" d="M214 -4T162 25T83 104T56 212Q56 292 95 361T204 472T357 513Q418 513 466 491T540 430T567 338Q567 288 553 265T504 241L129 233Q127 215 127 208Q127 144 171 103T286 61Q328 61 360 73T411
102T461 147Q470 156 481 156Q493 156 504 148T515 128Q515 115 503 102Q476 71 453 51T388 14T286 -4Q214 -4 162 25ZM486 302Q498 302 501 309T504 337Q504 388 464 419T357 451Q302 451 254 423T175 357T140 293L486 302ZM413 557T407 560T394 573L330 659Q319
676 319 686Q319 701 329 711T353 722Q370 722 386 698L444 613Q454 600 454 589Q454 576 444 567T421 557Q413 557 407 560Z" />
<glyph unicode="&#xe9;" glyph-name="eacute" horiz-adv-x="619" d="M214 -4T162 25T83 104T56 212Q56 292 95 361T204 472T357 513Q418 513 466 491T540 430T567 338Q567 288 553 265T504 241L129 233Q127 215 127 208Q127 144 171 103T286 61Q328 61 360 73T411
102T461 147Q470 156 481 156Q493 156 504 148T515 128Q515 115 503 102Q476 71 453 51T388 14T286 -4Q214 -4 162 25ZM486 302Q498 302 501 309T504 337Q504 388 464 419T357 451Q302 451 254 423T175 357T140 293L486 302ZM313 562T307 568T300 583Q300 599 315
614L421 720Q434 733 443 738T463 743Q475 743 482 736T490 718Q490 707 484 697T463 673L358 579Q348 569 340 566T323 562Q313 562 307 568Z" />
<glyph unicode="&#xea;" glyph-name="ecircumflex" horiz-adv-x="619" d="M214 -4T162 25T83 104T56 212Q56 292 95 361T204 472T357 513Q418 513 466 491T540 430T567 338Q567 288 553 265T504 241L129 233Q127 215 127 208Q127 144 171 103T286 61Q328 61 360
73T411 102T461 147Q470 156 481 156Q493 156 504 148T515 128Q515 115 503 102Q476 71 453 51T388 14T286 -4Q214 -4 162 25ZM486 302Q498 302 501 309T504 337Q504 388 464 419T357 451Q302 451 254 423T175 357T140 293L486 302ZM474 563T467 576Q410 678 393
678Q385 678 360 657T285 588Q265 568 250 568Q240 568 233 575T225 594Q225 607 239 620Q253 630 271 649Q319 693 349 716T400 740Q426 740 446 717T497 645L518 611Q524 603 524 596Q524 583 514 573T490 563Q474 563 467 576Z" />
<glyph unicode="&#xeb;" glyph-name="edieresis" horiz-adv-x="619" d="M214 -4T162 25T83 104T56 212Q56 292 95 361T204 472T357 513Q418 513 466 491T540 430T567 338Q567 288 553 265T504 241L129 233Q127 215 127 208Q127 144 171 103T286 61Q328 61 360
73T411 102T461 147Q470 156 481 156Q493 156 504 148T515 128Q515 115 503 102Q476 71 453 51T388 14T286 -4Q214 -4 162 25ZM486 302Q498 302 501 309T504 337Q504 388 464 419T357 451Q302 451 254 423T175 357T140 293L486 302ZM233 576T221 588T208 621Q208
647 227 665T272 683Q292 683 305 671T319 639Q319 614 299 595T254 576Q233 576 221 588ZM473 576T461 588T448 621Q448 647 467 665T512 683Q532 683 545 671T558 640Q558 615 539 596T494 576Q473 576 461 588Z" />
<glyph unicode="&#xec;" glyph-name="igrave" horiz-adv-x="314" d="M94 4T85 14T79 42L164 468Q167 486 179 496T209 506Q227 506 236 496T242 468L153 41Q150 24 139 14T111 4Q94 4 85 14ZM257 557T251 560T238 573L174 659Q163 676 163 686Q163 701 173 711T197
722Q214 722 230 698L288 613Q298 600 298 589Q298 576 288 567T265 557Q257 557 251 560Z" />
<glyph unicode="&#xed;" glyph-name="iacute" horiz-adv-x="314" d="M94 4T85 14T79 42L164 468Q167 486 179 496T209 506Q227 506 236 496T242 468L153 41Q150 24 139 14T111 4Q94 4 85 14ZM163 552T156 558T149 575Q149 583 155 592T171 611L263 692Q278 706
287 711T306 717Q317 717 324 710T332 691Q332 670 307 650L208 569Q188 552 173 552Q163 552 156 558Z" />
<glyph unicode="&#xee;" glyph-name="icircumflex" horiz-adv-x="314" d="M94 4T85 14T79 42L164 468Q167 486 179 496T209 506Q227 506 236 496T242 468L153 41Q150 24 139 14T111 4Q94 4 85 14ZM318 563T311 576Q254 678 237 678Q229 678 204 657T129 588Q109
568 94 568Q84 568 77 575T69 594Q69 607 83 620Q97 630 115 649Q163 693 193 716T244 740Q270 740 290 717T341 645L362 611Q368 603 368 596Q368 583 358 573T334 563Q318 563 311 576Z" />
<glyph unicode="&#xef;" glyph-name="idieresis" horiz-adv-x="314" d="M94 4T85 14T79 42L164 468Q167 486 179 496T209 506Q227 506 236 496T242 468L153 41Q150 24 139 14T111 4Q94 4 85 14ZM77 576T65 588T52 621Q52 647 71 665T116 683Q136 683 149 671T163
639Q163 614 143 595T98 576Q77 576 65 588ZM317 576T305 588T292 621Q292 647 311 665T356 683Q376 683 389 671T402 640Q402 615 383 596T338 576Q317 576 305 588Z" />
<glyph unicode="&#xf0;" glyph-name="eth" horiz-adv-x="614" d="M533 527T548 462T564 334Q564 236 528 161T426 44T268 2Q204 2 156 30T81 105T54 207Q54 288 92 356T196 464T344 504Q407 504 458 477Q445 510 430 538Q407 577 378 606L287 560Q273 553 262
553Q247 553 240 562T235 585Q237 599 256 609L328 646Q295 669 268 678Q254 684 254 698Q254 713 266 726T295 740Q307 740 329 729Q376 706 403 685L494 732Q504 737 511 737Q523 737 532 729T541 710Q541 698 534 691T513 675L451 643Q481 613 503 576Q533 527
548 462ZM333 67T381 102T456 198T482 330Q482 344 481 352Q459 397 424 419T344 441Q287 441 238 407T160 318T131 207Q131 145 168 106T268 67Q333 67 381 102Z" />
<glyph unicode="&#xf1;" glyph-name="ntilde" horiz-adv-x="554" d="M424 509T462 470T501 355Q501 321 491 259T459 77L451 32Q449 18 438 10T408 1Q390 1 381 9T374 32L382 77Q400 179 412 254T425 354Q425 398 409 420T356 442Q299 442 256 399T188 290Q169
238 159 174L134 29Q132 15 121 8T92 0Q73 0 65 8T58 29Q60 45 62 51Q97 265 114 388Q115 394 115 404Q115 416 111 428T100 457Q98 463 98 467Q98 480 113 491T142 502Q155 502 166 483Q173 472 180 449T185 415L181 397Q206 446 249 477T356 509Q424 509 462
470ZM195 566T189 572T183 591Q183 604 195 616Q224 645 245 657T292 669Q338 669 376 647Q382 644 393 638T412 628T427 625Q440 625 459 642Q475 657 487 657Q497 657 504 649T511 630Q511 616 500 605Q475 585 455 576T415 566Q392 566 360 584L340 594Q335
596 317 604T286 613Q276 613 267 606T239 582Q220 566 206 566Q195 566 189 572Z" />
<glyph unicode="&#xf2;" glyph-name="ograve" horiz-adv-x="593" d="M167 0T100 51T32 214Q32 295 69 364T175 475T329 517Q397 517 450 490T534 411T565 283Q565 201 529 137T425 37T270 0Q167 0 100 51ZM337 62T386 90T461 169T487 283Q487 362 444 407T329
453Q265 453 216 421T139 333T111 214Q111 133 157 98T270 62Q337 62 386 90ZM396 557T390 560T377 573L313 659Q302 676 302 686Q302 701 312 711T336 722Q353 722 369 698L427 613Q437 600 437 589Q437 576 427 567T404 557Q396 557 390 560Z" />
<glyph unicode="&#xf3;" glyph-name="oacute" horiz-adv-x="593" d="M167 0T100 51T32 214Q32 295 69 364T175 475T329 517Q397 517 450 490T534 411T565 283Q565 201 529 137T425 37T270 0Q167 0 100 51ZM337 62T386 90T461 169T487 283Q487 362 444 407T329
453Q265 453 216 421T139 333T111 214Q111 133 157 98T270 62Q337 62 386 90ZM302 552T295 558T288 575Q288 583 294 592T310 611L402 692Q417 706 426 711T445 717Q456 717 463 710T471 691Q471 670 446 650L347 569Q327 552 312 552Q302 552 295 558Z" />
<glyph unicode="&#xf4;" glyph-name="ocircumflex" horiz-adv-x="593" d="M167 0T100 51T32 214Q32 295 69 364T175 475T329 517Q397 517 450 490T534 411T565 283Q565 201 529 137T425 37T270 0Q167 0 100 51ZM337 62T386 90T461 169T487 283Q487 362 444 407T329
453Q265 453 216 421T139 333T111 214Q111 133 157 98T270 62Q337 62 386 90ZM457 563T450 576Q393 678 376 678Q368 678 343 657T268 588Q248 568 233 568Q223 568 216 575T208 594Q208 607 222 620Q236 630 254 649Q302 693 332 716T383 740Q409 740 429 717T480
645L501 611Q507 603 507 596Q507 583 497 573T473 563Q457 563 450 576Z" />
<glyph unicode="&#xf5;" glyph-name="otilde" horiz-adv-x="593" d="M167 0T100 51T32 214Q32 295 69 364T175 475T329 517Q397 517 450 490T534 411T565 283Q565 201 529 137T425 37T270 0Q167 0 100 51ZM337 62T386 90T461 169T487 283Q487 362 444 407T329
453Q265 453 216 421T139 333T111 214Q111 133 157 98T270 62Q337 62 386 90ZM210 566T204 572T198 591Q198 604 210 616Q239 645 260 657T307 669Q353 669 391 647Q397 644 408 638T427 628T442 625Q455 625 474 642Q490 657 502 657Q512 657 519 649T526 630Q526
616 515 605Q490 585 470 576T430 566Q407 566 375 584L355 594Q350 596 332 604T301 613Q291 613 282 606T254 582Q235 566 221 566Q210 566 204 572Z" />
<glyph unicode="&#xf6;" glyph-name="odieresis" horiz-adv-x="593" d="M167 0T100 51T32 214Q32 295 69 364T175 475T329 517Q397 517 450 490T534 411T565 283Q565 201 529 137T425 37T270 0Q167 0 100 51ZM337 62T386 90T461 169T487 283Q487 362 444 407T329
453Q265 453 216 421T139 333T111 214Q111 133 157 98T270 62Q337 62 386 90ZM216 576T204 588T191 621Q191 647 210 665T255 683Q275 683 288 671T302 639Q302 614 282 595T237 576Q216 576 204 588ZM456 576T444 588T431 621Q431 647 450 665T495 683Q515 683
528 671T541 640Q541 615 522 596T477 576Q456 576 444 588Z" />
<glyph unicode="&#xf7;" glyph-name="divide" horiz-adv-x="540" d="M285 389T273 401T261 430Q261 455 280 473T322 491Q341 491 354 479T368 449Q368 425 349 407T304 389Q285 389 273 401ZM104 265T98 271T91 284Q91 298 110 319Q131 342 156 354T216 366Q261
366 309 343Q340 328 381 328Q395 328 404 331T429 343Q437 348 445 351T463 355Q474 355 480 347T486 330Q486 321 477 313T452 293Q439 284 414 275T367 265Q342 265 322 272T275 292Q258 300 245 303T213 307Q194 307 178 302T148 283Q130 265 112 265Q104 265
98 271ZM240 134T227 146T214 178Q214 201 235 219T280 238Q298 238 311 225T324 194Q324 169 305 152T260 134Q240 134 227 146Z" />
<glyph unicode="&#xf8;" glyph-name="oslash" horiz-adv-x="595" d="M578 559T584 551T590 531Q587 519 578 512L510 447Q567 385 567 283Q567 201 531 137T427 37T272 0Q164 0 102 52L41 -7Q28 -20 14 -20Q5 -20 -2 -14T-10 2Q-10 15 2 27L67 90Q34 139 34 214Q34
295 71 364T177 475T331 517Q411 517 471 480L538 545Q552 559 567 559Q578 559 584 551ZM113 173T125 146L419 430Q381 453 331 453Q267 453 218 421T141 333T113 214Q113 173 125 146ZM489 349T457 395L154 102Q197 62 272 62Q339 62 388 90T463 169T489 283Q489
349 457 395Z" />
<glyph unicode="&#xf9;" glyph-name="ugrave" horiz-adv-x="547" d="M436 110Q434 96 434 91Q434 73 440 59T446 40Q446 29 433 18T408 7Q387 7 373 26T359 68V76Q330 39 286 20T192 0Q55 0 55 150Q55 178 65 241T88 370Q104 453 107 474Q109 487 121 495T149
503Q166 503 175 495T183 474Q177 439 172 410T162 356Q151 295 142 238T132 156Q132 109 151 86T211 63Q345 63 389 308L419 475Q422 491 433 500T462 509Q480 509 489 500T496 475L436 110ZM360 557T354 560T341 573L277 659Q266 676 266 686Q266 701 276 711T300
722Q317 722 333 698L391 613Q401 600 401 589Q401 576 391 567T368 557Q360 557 354 560Z" />
<glyph unicode="&#xfa;" glyph-name="uacute" horiz-adv-x="547" d="M436 110Q434 96 434 91Q434 73 440 59T446 40Q446 29 433 18T408 7Q387 7 373 26T359 68V76Q330 39 286 20T192 0Q55 0 55 150Q55 178 65 241T88 370Q104 453 107 474Q109 487 121 495T149
503Q166 503 175 495T183 474Q177 439 172 410T162 356Q151 295 142 238T132 156Q132 109 151 86T211 63Q345 63 389 308L419 475Q422 491 433 500T462 509Q480 509 489 500T496 475L436 110ZM266 552T259 558T252 575Q252 583 258 592T274 611L366 692Q381 706
390 711T409 717Q420 717 427 710T435 691Q435 670 410 650L311 569Q291 552 276 552Q266 552 259 558Z" />
<glyph unicode="&#xfb;" glyph-name="ucircumflex" horiz-adv-x="547" d="M436 110Q434 96 434 91Q434 73 440 59T446 40Q446 29 433 18T408 7Q387 7 373 26T359 68V76Q330 39 286 20T192 0Q55 0 55 150Q55 178 65 241T88 370Q104 453 107 474Q109 487 121 495T149
503Q166 503 175 495T183 474Q177 439 172 410T162 356Q151 295 142 238T132 156Q132 109 151 86T211 63Q345 63 389 308L419 475Q422 491 433 500T462 509Q480 509 489 500T496 475L436 110ZM421 563T414 576Q357 678 340 678Q332 678 307 657T232 588Q212 568
197 568Q187 568 180 575T172 594Q172 607 186 620Q200 630 218 649Q266 693 296 716T347 740Q373 740 393 717T444 645L465 611Q471 603 471 596Q471 583 461 573T437 563Q421 563 414 576Z" />
<glyph unicode="&#xfc;" glyph-name="udieresis" horiz-adv-x="547" d="M436 110Q434 96 434 91Q434 73 440 59T446 40Q446 29 433 18T408 7Q387 7 373 26T359 68V76Q330 39 286 20T192 0Q55 0 55 150Q55 178 65 241T88 370Q104 453 107 474Q109 487 121 495T149
503Q166 503 175 495T183 474Q177 439 172 410T162 356Q151 295 142 238T132 156Q132 109 151 86T211 63Q345 63 389 308L419 475Q422 491 433 500T462 509Q480 509 489 500T496 475L436 110ZM180 576T168 588T155 621Q155 647 174 665T219 683Q239 683 252 671T266
639Q266 614 246 595T201 576Q180 576 168 588ZM420 576T408 588T395 621Q395 647 414 665T459 683Q479 683 492 671T505 640Q505 615 486 596T441 576Q420 576 408 588Z" />
<glyph unicode="&#xfd;" glyph-name="yacute" horiz-adv-x="522" d="M106 -259T98 -249T91 -223Q93 -214 96 -209L124 -158Q213 5 239 56Q204 82 168 151T108 305T84 465V478Q84 487 95 497T127 508Q142 508 146 502T152 481Q157 389 177 313T223 185T273 112L326
227Q405 399 440 485Q446 500 454 505T477 511Q514 511 515 481Q515 476 512 470Q456 337 419 255T335 83Q293 2 244 -88T164 -232Q149 -259 124 -259Q106 -259 98 -249ZM266 552T259 558T252 575Q252 583 258 592T274 611L366 692Q381 706 390 711T409 717Q420
717 427 710T435 691Q435 670 410 650L311 569Q291 552 276 552Q266 552 259 558Z" />
<glyph unicode="&#xfe;" glyph-name="thorn" horiz-adv-x="588" d="M379 515T430 493T516 422T550 304Q550 212 514 144T409 38T247 1Q210 1 162 17T85 57Q72 -16 61 -68T34 -180Q30 -195 18 -203T-12 -212Q-27 -212 -35 -203T-41 -178Q-34 -135 1 23Q13 76 47
264Q85 485 123 695Q126 712 137 722T164 732Q181 732 191 723T199 699L155 454Q189 480 238 497T326 515Q379 515 430 493ZM315 64T366 95T444 182T471 304Q471 378 428 415T326 452Q285 452 246 434T178 393T138 354L119 243Q105 165 98 124Q102 112 126 98T183
74T247 64Q315 64 366 95Z" />
<glyph unicode="&#xff;" glyph-name="ydieresis" horiz-adv-x="522" d="M106 -259T98 -249T91 -223Q93 -214 96 -209L124 -158Q213 5 239 56Q204 82 168 151T108 305T84 465V478Q84 487 95 497T127 508Q142 508 146 502T152 481Q157 389 177 313T223 185T273 112L326
227Q405 399 440 485Q446 500 454 505T477 511Q514 511 515 481Q515 476 512 470Q456 337 419 255T335 83Q293 2 244 -88T164 -232Q149 -259 124 -259Q106 -259 98 -249ZM180 576T168 588T155 621Q155 647 174 665T219 683Q239 683 252 671T266 639Q266 614 246
595T201 576Q180 576 168 588ZM420 576T408 588T395 621Q395 647 414 665T459 683Q479 683 492 671T505 640Q505 615 486 596T441 576Q420 576 408 588Z" />
<glyph unicode="&#x2013;" glyph-name="endash" horiz-adv-x="819" d="M194 337T93 346Q79 347 72 355T64 375Q64 392 78 404T109 415Q228 406 307 406Q371 406 485 410Q513 411 566 412T663 413L718 412Q735 411 770 411Q786 411 795 404T804 385Q804 369 790
357T759 344Q728 344 712 345L660 346Q571 346 459 341Q329 337 263 337Q194 337 93 346Z" />
<glyph unicode="&#x2014;" glyph-name="emdash" horiz-adv-x="1547" d="M148 343T92 350Q65 355 65 378Q65 393 78 406T109 418Q180 412 429 412Q518 412 611 412T800 414Q896 415 991 415T1178 416Q1279 416 1403 412Q1489 410 1511 410Q1521 410 1526 403T1532
383Q1532 367 1522 355T1499 343L1411 345Q1252 348 1216 348Q1121 348 1020 348T815 346Q605 343 409 343Q148 343 92 350Z" />
<glyph unicode="&#x2018;" glyph-name="quoteleft" horiz-adv-x="274" d="M231 619T250 605T270 560Q270 527 246 504T184 479Q152 479 134 496T115 543Q115 587 146 632T213 709Q226 719 235 719Q242 719 248 715T255 702Q255 692 244 681Q205 642 187 617Q193
619 206 619Q231 619 250 605ZM204 514T218 526T232 556Q232 568 224 576T200 584Q182 584 169 572T155 542Q155 531 163 523T187 514Q204 514 218 526Z" />
<glyph unicode="&#x2019;" glyph-name="quoteright" horiz-adv-x="275" d="M250 724T269 707T288 660Q288 618 259 573T189 495Q178 485 168 485Q158 485 153 490T147 502Q147 512 158 523Q160 525 180 545T220 589Q207 584 195 584Q172 584 152 600T132 644Q132
679 156 701T217 724Q250 724 269 707ZM170 636T178 628T202 620Q220 620 233 632T247 662Q247 674 239 681T213 689Q198 689 184 677T170 648Q170 636 178 628Z" />
<glyph unicode="&#x201a;" glyph-name="quotesinglbase" horiz-adv-x="275" d="M143 140T162 122T182 74Q182 31 157 -6T84 -90Q73 -101 63 -101Q55 -101 49 -97T42 -84Q42 -72 54 -61Q91 -27 111 3Q99 -2 90 -2Q63 -2 45 14T27 56Q27 93 50 116T111 140Q143 140
162 122ZM67 35T97 35Q115 35 128 47T142 77Q142 90 134 97T108 105Q93 105 80 94T67 65Q67 35 97 35Z" />
<glyph unicode="&#x201c;" glyph-name="quotedblleft" horiz-adv-x="452" d="M408 625T427 610T447 563Q447 529 423 507T360 484Q329 484 311 502T292 552Q292 593 319 633T390 713Q401 724 411 724Q419 724 425 720T432 707Q432 697 420 685Q416 681 397 663T362
621Q373 625 385 625Q408 625 427 610ZM229 619T248 604T267 557Q267 522 242 502T182 479Q150 479 132 496T113 543Q113 586 140 626T210 709Q220 719 232 719Q239 719 245 715T252 702Q252 692 241 681Q238 679 218 660T180 616Q192 619 203 619Q229 619 248
604ZM382 519T395 530T408 559Q408 572 400 580T377 588Q358 588 345 576T332 546Q332 534 340 527T366 519Q382 519 395 530ZM200 514T214 526T229 556Q229 568 221 576T197 584Q179 584 166 573T152 543Q152 517 184 514Q200 514 214 526Z" />
<glyph unicode="&#x201d;" glyph-name="quotedblright" horiz-adv-x="454" d="M429 724T448 707T467 660Q467 617 440 578T368 495Q357 485 347 485Q337 485 331 491T325 503Q325 514 336 523Q346 532 365 551T398 590Q386 584 371 584Q348 584 330 598T311 640Q311
676 335 699T396 724Q429 724 448 707ZM247 720T266 702T286 654Q286 611 261 574T188 490Q177 479 167 479Q159 479 153 483T146 496Q146 505 158 519Q197 558 214 583Q202 578 194 578Q167 578 149 594T131 636Q131 673 154 696T215 720Q247 720 266 702ZM349
636T357 628T380 620Q399 620 412 632T426 662Q426 673 418 681T392 689Q377 689 363 677T349 648Q349 636 357 628ZM171 615T201 615Q219 615 232 627T246 657Q246 670 238 677T212 685Q197 685 184 674T171 645Q171 615 201 615Z" />
<glyph unicode="&#x201e;" glyph-name="quotedblbase" horiz-adv-x="454" d="M324 144T343 127T362 80Q362 2 264 -85Q253 -95 243 -95Q233 -95 227 -89T221 -77Q221 -66 232 -57Q242 -48 261 -29T294 10Q282 4 267 4Q244 4 226 18T207 60Q207 96 231 120T292
144Q324 144 343 127ZM143 140T162 122T182 74Q182 31 157 -6T84 -90Q73 -101 63 -101Q55 -101 49 -97T42 -84Q42 -72 54 -61Q91 -27 111 3Q99 -2 90 -2Q63 -2 45 14T27 56Q27 93 50 116T111 140Q143 140 162 122ZM244 56T252 48T275 40Q294 40 307 52T321 82Q321
93 313 101T287 109Q272 109 258 97T244 68Q244 56 252 48ZM67 35T97 35Q115 35 128 47T142 77Q142 90 134 97T108 105Q93 105 80 94T67 65Q67 35 97 35Z" />
<glyph unicode="&#x2022;" glyph-name="bullet" horiz-adv-x="570" d="M282 58T259 79T235 134Q219 110 197 96T153 81Q106 81 77 108T48 182Q48 222 77 250T153 286Q140 299 133 317T125 354Q125 408 159 441T250 474Q291 474 315 450T340 384Q352 415 378 433T437
452Q480 452 506 425T533 353Q533 314 503 282T424 236Q437 226 445 212T453 182Q453 126 417 92T320 58Q282 58 259 79ZM354 116T375 135T396 186Q396 194 389 204T371 224Q367 228 367 235Q367 248 372 257T387 268Q424 278 447 299T470 345Q470 368 458 382T425
396Q403 396 383 381T349 340Q345 332 338 327T323 322Q311 322 305 327T299 340L301 361Q301 385 288 400T252 415Q221 415 202 399T183 354Q183 339 188 325T202 303Q209 298 209 288Q209 271 202 261T183 251Q151 251 132 234T113 188Q113 166 125 153T159 139Q177
139 195 150T224 180Q229 187 235 191T249 195Q259 195 264 191T270 180Q270 151 284 134T320 116Q354 116 375 135ZM250 206T237 219T223 254Q223 281 240 297T285 314Q310 314 325 300T340 263Q340 237 322 222T273 206Q250 206 237 219ZM292 234T300 242T309
263Q309 273 303 278T285 284Q271 284 262 276T253 254Q253 245 260 240T279 234Q292 234 300 242Z" />
<glyph unicode="&#x2039;" glyph-name="guilsinglleft" horiz-adv-x="361" d="M222 152T181 182T108 255T77 328Q77 361 125 407T234 489T328 525Q347 525 347 503Q347 475 317 464Q275 449 233 422T163 368T135 328Q135 315 152 293T197 248T259 212Q282 205
282 185Q282 171 273 162T251 152Q222 152 181 182Z" />
<glyph unicode="&#x203a;" glyph-name="guilsinglright" horiz-adv-x="361" d="M70 152T64 158T57 175Q57 187 66 197T92 212Q131 225 170 251T236 303T262 340Q262 354 243 378T191 426T123 464Q113 469 109 473T104 486Q104 502 112 513T134 525Q163 525 208
494T286 421T320 348Q320 316 276 269T173 187T79 152Q70 152 64 158Z" />
</font>
</defs>
</svg>
